<svg width="185" height="39" viewBox="0 0 185 39" fill="none" xmlns="http://www.w3.org/2000/svg">
<path d="M111.064 29.24C109.672 29.24 108.392 29 107.224 28.52C106.056 28.04 105.04 27.376 104.176 26.528C103.328 25.664 102.672 24.648 102.208 23.48C101.744 22.296 101.512 21.008 101.512 19.616C101.512 18.224 101.744 16.944 102.208 15.776C102.672 14.608 103.328 13.6 104.176 12.752C105.04 11.888 106.056 11.216 107.224 10.736C108.392 10.256 109.672 10.016 111.064 10.016C112.456 10.016 113.728 10.256 114.88 10.736C116.048 11.216 117.064 11.888 117.928 12.752C118.792 13.6 119.456 14.608 119.92 15.776C120.384 16.944 120.616 18.224 120.616 19.616C120.616 21.008 120.384 22.296 119.92 23.48C119.456 24.648 118.792 25.664 117.928 26.528C117.064 27.376 116.048 28.04 114.88 28.52C113.728 29 112.456 29.24 111.064 29.24ZM111.064 27.296C112.152 27.296 113.152 27.104 114.064 26.72C114.992 26.336 115.792 25.8 116.464 25.112C117.136 24.408 117.656 23.592 118.024 22.664C118.408 21.72 118.6 20.704 118.6 19.616C118.6 18.528 118.408 17.52 118.024 16.592C117.656 15.664 117.136 14.856 116.464 14.168C115.792 13.464 114.992 12.92 114.064 12.536C113.152 12.152 112.152 11.96 111.064 11.96C109.976 11.96 108.968 12.152 108.04 12.536C107.128 12.92 106.328 13.464 105.64 14.168C104.968 14.856 104.448 15.664 104.08 16.592C103.712 17.52 103.528 18.528 103.528 19.616C103.528 20.704 103.712 21.72 104.08 22.664C104.448 23.592 104.968 24.408 105.64 25.112C106.328 25.8 107.128 26.336 108.04 26.72C108.968 27.104 109.976 27.296 111.064 27.296ZM123.253 29C122.949 29 122.717 28.912 122.557 28.736C122.397 28.544 122.309 28.32 122.293 28.064C122.277 27.792 122.357 27.544 122.533 27.32L128.725 18.944L129.661 18.152L135.253 10.592C135.445 10.368 135.701 10.256 136.021 10.256C136.309 10.256 136.533 10.352 136.693 10.544C136.853 10.72 136.941 10.936 136.957 11.192C136.973 11.448 136.909 11.68 136.765 11.888L130.885 19.832L129.997 20.576L123.997 28.688C123.805 28.896 123.557 29 123.253 29ZM136.093 29C135.949 29 135.805 28.968 135.661 28.904C135.533 28.84 135.413 28.744 135.301 28.616L129.445 20.528L128.653 19.904L122.893 11.888C122.733 11.68 122.661 11.448 122.677 11.192C122.709 10.936 122.805 10.72 122.965 10.544C123.141 10.352 123.365 10.256 123.637 10.256C123.989 10.256 124.253 10.368 124.429 10.592L129.949 18.272L130.717 18.824L136.837 27.32C136.997 27.528 137.069 27.768 137.053 28.04C137.053 28.312 136.965 28.544 136.789 28.736C136.629 28.912 136.397 29 136.093 29ZM141.612 29C141.324 29 141.076 28.904 140.868 28.712C140.676 28.504 140.58 28.256 140.58 27.968V11.288C140.58 10.984 140.676 10.736 140.868 10.544C141.076 10.352 141.324 10.256 141.612 10.256C141.916 10.256 142.164 10.352 142.356 10.544C142.564 10.736 142.668 10.984 142.668 11.288V27.968C142.668 28.256 142.564 28.504 142.356 28.712C142.164 28.904 141.916 29 141.612 29ZM156.134 29.24C154.742 29.24 153.462 29 152.294 28.52C151.126 28.04 150.11 27.376 149.246 26.528C148.398 25.664 147.742 24.648 147.278 23.48C146.814 22.296 146.582 21.008 146.582 19.616C146.582 18.224 146.814 16.944 147.278 15.776C147.742 14.608 148.398 13.6 149.246 12.752C150.11 11.888 151.126 11.216 152.294 10.736C153.462 10.256 154.742 10.016 156.134 10.016C157.526 10.016 158.798 10.256 159.95 10.736C161.118 11.216 162.134 11.888 162.998 12.752C163.862 13.6 164.526 14.608 164.99 15.776C165.454 16.944 165.686 18.224 165.686 19.616C165.686 21.008 165.454 22.296 164.99 23.48C164.526 24.648 163.862 25.664 162.998 26.528C162.134 27.376 161.118 28.04 159.95 28.52C158.798 29 157.526 29.24 156.134 29.24ZM156.134 27.296C157.222 27.296 158.222 27.104 159.134 26.72C160.062 26.336 160.862 25.8 161.534 25.112C162.206 24.408 162.726 23.592 163.094 22.664C163.478 21.72 163.67 20.704 163.67 19.616C163.67 18.528 163.478 17.52 163.094 16.592C162.726 15.664 162.206 14.856 161.534 14.168C160.862 13.464 160.062 12.92 159.134 12.536C158.222 12.152 157.222 11.96 156.134 11.96C155.046 11.96 154.038 12.152 153.11 12.536C152.198 12.92 151.398 13.464 150.71 14.168C150.038 14.856 149.518 15.664 149.15 16.592C148.782 17.52 148.598 18.528 148.598 19.616C148.598 20.704 148.782 21.72 149.15 22.664C149.518 23.592 150.038 24.408 150.71 25.112C151.398 25.8 152.198 26.336 153.11 26.72C154.038 27.104 155.046 27.296 156.134 27.296ZM175.404 29.24C174.38 29.24 173.42 29.088 172.524 28.784C171.628 28.48 170.852 28.056 170.196 27.512C169.54 26.952 169.052 26.304 168.732 25.568C168.588 25.28 168.58 25.016 168.708 24.776C168.852 24.536 169.084 24.376 169.404 24.296C169.66 24.232 169.9 24.264 170.124 24.392C170.364 24.52 170.548 24.712 170.676 24.968C170.9 25.4 171.236 25.8 171.684 26.168C172.148 26.52 172.692 26.8 173.316 27.008C173.956 27.2 174.652 27.296 175.404 27.296C176.22 27.296 176.956 27.168 177.612 26.912C178.268 26.64 178.788 26.248 179.172 25.736C179.556 25.224 179.748 24.6 179.748 23.864C179.748 22.936 179.396 22.128 178.692 21.44C177.988 20.736 176.868 20.296 175.332 20.12C173.428 19.912 171.932 19.336 170.844 18.392C169.772 17.432 169.236 16.256 169.236 14.864C169.236 13.872 169.508 13.016 170.052 12.296C170.596 11.56 171.34 11 172.284 10.616C173.228 10.216 174.3 10.016 175.5 10.016C176.412 10.016 177.228 10.16 177.948 10.448C178.684 10.72 179.316 11.088 179.844 11.552C180.388 12.016 180.836 12.536 181.188 13.112C181.38 13.4 181.444 13.68 181.38 13.952C181.332 14.208 181.188 14.408 180.948 14.552C180.692 14.696 180.42 14.728 180.132 14.648C179.86 14.552 179.652 14.376 179.508 14.12C179.252 13.72 178.94 13.36 178.572 13.04C178.22 12.704 177.788 12.448 177.276 12.272C176.78 12.08 176.18 11.976 175.476 11.96C174.228 11.96 173.212 12.216 172.428 12.728C171.66 13.224 171.276 13.976 171.276 14.984C171.276 15.496 171.412 15.984 171.684 16.448C171.956 16.896 172.42 17.28 173.076 17.6C173.748 17.92 174.668 18.16 175.836 18.32C177.804 18.576 179.284 19.176 180.276 20.12C181.284 21.064 181.788 22.304 181.788 23.84C181.788 24.72 181.62 25.496 181.284 26.168C180.948 26.84 180.484 27.408 179.892 27.872C179.316 28.32 178.636 28.664 177.852 28.904C177.084 29.128 176.268 29.24 175.404 29.24Z" fill="#7873AA"/>
<path d="M13.01 10.5106C26.4752 -3.54231 58.747 -0.00838733 65.7766 7.05945C74.3272 15.6567 67.7182 27.9724 64.8565 29.9337C61.1698 32.4605 47.7006 38.8647 35.1478 38.8647C22.595 38.8647 23.0971 33.3114 14.0591 31.7969C3.09566 29.9596 5.74988 18.0876 13.01 10.5106Z" fill="#7873AA"/>
<path d="M62.4978 3.59458C62.3675 2.49289 63.1511 1.46582 64.2481 1.30055C65.3451 1.13528 66.34 1.89439 66.4703 2.99608L67.4217 11.038C67.552 12.1397 66.7683 13.1668 65.6714 13.332C64.5744 13.4973 63.5794 12.7382 63.4491 11.6365L62.4978 3.59458Z" fill="#7873AA"/>
<path d="M16.7751 13.9133C12.3027 18.605 15.264 24.6749 18.707 27.2731C28.2051 34.4407 53.9983 32.0366 60.5853 27.7062C67.2971 23.2937 67.2611 12.6806 60.5853 7.75002C53.9094 2.8194 23.4412 6.92024 16.7751 13.9133Z" fill="white"/>
<path d="M1.34133 11.0083C0.600533 9.83343 0.930616 8.24721 2.07859 7.46538C3.22656 6.68355 4.75771 7.00217 5.49851 8.17705L12.0811 18.6168C12.8219 19.7917 12.4918 21.3779 11.3438 22.1597C10.1959 22.9415 8.66471 22.6229 7.92391 21.448L1.34133 11.0083Z" fill="#7873AA"/>
<path d="M31.475 18.166C31.475 20.3966 29.6766 22.2048 27.4581 22.2048C25.2396 22.2048 23.4412 20.3966 23.4412 18.166C23.4412 15.9355 25.2396 14.1273 27.4581 14.1273C29.6766 14.1273 31.475 15.9355 31.475 18.166Z" fill="#7873AA"/>
<path d="M58.0152 17.6612C58.0152 19.6129 56.4415 21.1951 54.5004 21.1951C52.5592 21.1951 50.9856 19.6129 50.9856 17.6612C50.9856 15.7095 52.5592 14.1273 54.5004 14.1273C56.4415 14.1273 58.0152 15.7095 58.0152 17.6612Z" fill="#7873AA"/>
</svg>
