<?xml version="1.0" encoding="utf-8"?>
<!-- Generator: Adobe Illustrator 24.1.2, SVG Export Plug-In . SVG Version: 6.00 Build 0)  -->
<svg version="1.1" id="Слой_1" xmlns="http://www.w3.org/2000/svg" xmlns:xlink="http://www.w3.org/1999/xlink" x="0px" y="0px"
	 viewBox="0 0 376.9 383" style="enable-background:new 0 0 376.9 383;" xml:space="preserve">
<style type="text/css">
	.st0{clip-path:url(#SVGID_2_);}
	.st1{fill:#F4F3F8;stroke:#9A98AE;stroke-width:0.25;stroke-miterlimit:1;}
	.st2{fill:#7873AA;stroke:#9A98AE;stroke-width:0.25;stroke-miterlimit:1;}
	.st3{fill:#EF8484;fill-opacity:0.3;}
	.st4{fill:#EF8484;}
</style>
<g>
	<defs>
		<rect id="SVGID_1_" y="-70.7" width="375" height="640"/>
	</defs>
	<clipPath id="SVGID_2_">
		<use xlink:href="#SVGID_1_"  style="overflow:visible;"/>
	</clipPath>
	<g class="st0">
		<path class="st1" d="M217.7,193.2c-1.7-0.2-1.9-2.1-3.5-2.6c-1.2-0.3-2.5-0.7-2.4-2c1.6-0.5-0.4-1.6,0.2-2.8
			c1.5-0.2,0.9-1.6,2.1-2.1c0.8-0.3,2.5,1.1,1.3-0.7c-0.6-1.3,1.7-0.5,2.3-0.1c1.2,0.6,1.8,1.9,3.3,2c1.1,0,1.7,1.2,3,1.3
			c0.9,1.2-1.8,0.7-2.1,1.3c1.7,0.6-0.3,2-1.5,1.2c-1.6-0.8-2.8,1.1-2.9,2.4C217.7,191.9,217.8,192.5,217.7,193.2z"/>
		<path class="st1" d="M179.8,162.8c1.6-0.1,3.1,0.4,4.6,0.5c1.7,0.9,2.5-0.6,4-1.1c1.5-0.7,3.3,0.7,4.5-0.6c2.2,0.7,2.3,0,3.1-1
			c1.9-1.1,1.7,1.8,3.2,2.4c-1.6-1.3-1.6,0.9-2.7,0.5c-0.8,1.3-2.8,0.6-3.5,1.8c1.2,0.6,0.8,2.3-0.6,2c-1.7,0.3-1,0.8-1.3,1.7
			c0.5,1.3-1.5,0.7-2.2,0.4c-0.8,0.3-1.9,0.1-2.4-0.9c-0.6,0-1.4,1.5-2.7,0.9c-1.2-0.2-1.6,0.1-2.7,0.2c-2.7,0.1,0.1,0.1,0.3-1.4
			c-2-0.5-1.5-1.9-2.3-2.4c2.6-1.1-2.6-1.3,0.1-2.1C179.9,163.5,180.5,163.5,179.8,162.8z"/>
		<path class="st1" d="M205.8,186.2c-1.3-0.8-2.8-1.7-3.9-2.7c-1.8,0.1-3.1-1.7-4.8-0.9c-1.6,0.7-2-2-3.8-2.2
			c-1.2-0.4-3-2.2-2.9-2.8c2.1,0.1,2.7,0.1,0.4-0.7c-1.4-0.7-2.8-2.1-2-3.7c-0.9-1.2-2.4-2.1-3.9-2.6c-0.6,1.5-1.1,2.4-2.2,3.2
			c-1,1.2-2.2-1.3-2.4-2.3c-1.2-1.9-0.4-1.7,1.2-1.9c1,0,1.5-0.2,2.7-0.2c1.3,1,1.9-1.8,2.6-0.6c0.6,1.2,1.8,0.6,2.7,0.7
			c0.8,0.7,2.4,0.3,1.6-0.8c0.2-0.7,0.3-1.3,1.9-1.4c1.8,0.1-0.1-1.8,0.3-2.3c1-0.5,2.5-0.4,3.2-1.4c1.1,0.4,1.1-1.8,2.7-0.5
			c2.1,1.6,4.9,2.1,7,3.7c2.2,1.4,5.1,0.9,7.5,0.2c1.8-0.2,0.4,2.2,1.4,2.2c1.1,0.2-0.8,1.3,1.1,1.8c1.5-0.1,2.2,1,0.3,0.4
			c-0.9,0.3-0.7,1.9-1.1,2.3c-1.6,0.6-1.6-0.8-2.4-1.3c-1.2,0-2.5-0.5-3.7-0.2c-1.1-0.3-2.1,0.3-3.4-0.2c-1.4-0.3-2.4-0.1-3.7-0.6
			c-1.1-0.1-2.4,0-3.5,0.2c-0.7,1.6-2.3,1.2-3-0.2c-2.1-0.8-1.2,1.8-1.8,2.5c0.7,0.9,2.2,1.2,2.6,2.6c0.4,1.2,0.5,1.5,1.6,2.6
			c1.8,0.1,1.9,2,3.4,2.5c1,1.1,2.6,1.2,2.8,2.6C204.9,184.5,208.1,185.9,205.8,186.2z M206.5,186.6c1.1-1,2,1.1,3.2,1
			c0.8,1,2.2,0.5,2.4,2c-0.6,0.4-2.4-1.4-3.3-1.8C208,187.3,207.2,187,206.5,186.6z"/>
		<path class="st1" d="M239.4,177.5c-0.8,1.2-3,2.1-2.5,3.8c1.3,1.2,3,2.2,3.9,3.5c-0.3,2-4.1,1.4-3.8,3.9c0.6,1.8-1.3,1.4-2.4,1.6
			c-1.1,0.1-2.1,0.6-3.3,0.4c-1,1.1-1.2,0.8-2.4,0.5c-1.9-0.1-1.8,1.6-2.9,2c-1.3-1-2.3-3.2-3.9-4.1c0.7-1.3-1.2-1.9,1.1-1.7
			c1.6-0.4,0.5-1.4-0.7-1.4c-0.8-1.2-2.1-0.8-3.2-1.6c-0.2-1.2-3.3-1.4-2.1-2.2c0.9-0.1,2.3-0.5,0.9-1.7c-2.1-1.7-0.4-0.6,1-1.2
			c0.2-0.5-1.7-1.1-2-1.8c-1.6,0.2-1.2-1.8-0.3-2.3c1.4-1.1,0.4-2.5-1.1-1.6c-0.2,0.1,0.3-1.7,0.7-2.2c1.8,0.7,1.6-0.4-0.1-0.4
			c-1.8-0.4-0.6-1.3-1-1.8c-1,0.2-0.3-2.2-1.1-2.3c2.9-1.1,5.8-2.1,9-1.5c0.8,0.8,2.1,1.4,3.2,2.2c0.2,1,0.3,2.3,2,2.9
			c0.8,0.6,4.2,0.7,2.4,2c1.1,0.9,0.3,0.4-0.1,1.6c1.5,0.3,2.2,0.7,3.8,1.2c1.4,1.8,1.9-0.9,3.3-0.8c2.8,0.9,1.1,0.7,0.1,1.8
			C238,177.1,238.8,177.2,239.4,177.5z"/>
		<path class="st1" d="M240.9,197.2c-1.7,0.4-3.1,1.6-4.9,1c-1.7-0.7-2.5,1.2-3.8,1.7c-1.5,0.2-3.5,1.2-4.6-0.3
			c-1.8-1.3-2.7-4-1.8-6c0.4-0.4,1.1-1.4,2-2.1c0.9-1.1,2.6,0.5,2.6-0.2c0.9-1.2,2.4-0.1,3.4-1c1-0.1,2.2-0.1,3.3-0.3
			c0.1,1.6,2.6,1.3,3.2,2.8C241.5,194,240.9,195.7,240.9,197.2L240.9,197.2z"/>
		<path class="st1" d="M206.5,186.6c-0.6-0.4,0.6-1.4-1.3-2.1c-1.4-0.6-1-2.2-2.8-2.4c-1.2-1-2.1-1.7-3.1-2.9
			c-1.3-0.2-2.4-1.4-2.2-2.2c-0.6-1-1.3-2.2-2.4-2.6c-0.4-0.5-0.6-2.5,0.4-3.1c1.3-0.4,2.4,2.6,3.4,0.9c0.8-1.5,2.5-0.2,3.5-0.9
			c1.3,0.7,2.2,0.4,3.5,0.8c1.3-0.1,2.5,0.8,3.6,0c1.1,0.3,2.5,0.1,3.5,0.3c1.5-0.2,1,1.6,2.4,1.5c0.9-0.2,3.4-1.2,2.6,0.7
			c-0.7,0.9-1.7,1.8-1.2,2.9c1.3,0,1.6,1.3,2.9,1.6c0.8,1.4-2.9-0.1-2,0.8c1,0.1,2.4,2.7,0.8,2.2c-0.6,0.8-3.1,0-2.7,1.1
			c1.3,1.7-0.3,0.7-1.2,0.8c-1.3,0.5-0.6,2-2,2.1c-0.8,1,1.4,2.4-0.3,2.8c-1.2-0.3-2.1-1.2-3.4-1.5
			C207.8,186.8,207.2,185.6,206.5,186.6z"/>
		<path class="st1" d="M222.6,208.2c-0.4-1.6-1.5-2.8-3-3.5c-2.5-1-1.2-1-1.4-2.4c-1.7-1.1,1.4-2.3,0.1-3.5c1.1-1.3-1.4-3.1,1-3.6
			c0.8-2-2.3-1.1-1.7-3.1c-0.7-1.2,0.6-3.3,1.8-3.2c1.4,0.3,3.1-0.1,4,1.4c1.1,1.4,3.1,2.8,1.9,4.8c0,2.2,1,4.2,2.9,5.3
			c0.2,0.7-1.1,2.7-2,3.5C224.7,205,223.6,206.5,222.6,208.2z"/>
		<path class="st1" d="M239.5,111.4c-1.2-1.4,1.9-2.6,0.1-3.4c-1.1-0.8-2.3-0.9-3.8-0.8c-1.2,0-2.8-0.5-4.1-0.9
			c-0.7-1-2.9,0.4-1.9-1c-1.2-1.2-1.5-2.8-1.4-4.4c0.1-0.2,1.9-1.3,3.1-1.6c2-0.5,4-1.3,6.1-0.8c1.4,0.4,3-0.7,4,0.4
			c1.4-0.6,2.9,0.3,4.4-0.1c1.6-0.2,2.9,0.9,4.4,0.3c1.2,0.6,3-1.6,3.6-0.3c1.3,2,4.2,0.5,5.7,2.1c1.5,0.4,2.6,1.4,3.8,2.1
			c2.5-0.4,0.5,1.8,0.7,2.3c2.3-0.2,1.5,0.8,0.3,1.5c-1.6-1.1-2.1,1.2-3.7,1c-1.8-0.2-1.5,2-2,2.7c-2,1.4,0.9,1.1,0.4,2.5
			c-1.5,1-1.4-1.8-2.7-0.6c-1.2,0.1-2.2,0.8-3.6,0.9c0.6,1.4-2.2,0.9-3.1,1.5c-1-0.8-2.6,0-3.9-0.2c-1.5,0.4-1.6-1.7-2.5-2.5
			C242.2,111.4,240.9,111.1,239.5,111.4z"/>
		<path class="st1" d="M274.2,78.5c2.1,0.9-0.3,1.1-1,1.5c-0.4,1.6-2.3,1.6-3,2.8c0.6,1.5,0.7,2.7,0.4,3.9c0.7,0.7,2.4,2,1.6,2.4
			c-1.4,0-2.3,1.5-2.5,2.1c-1.4,0-2.6-0.9-3.8-0.4c-1.1,0.7-2.8,0.3-3.5-0.8c-1.2-0.8-2.4-1-3.7-1.3c-1.3-0.8-2.3-0.6-3.2-1
			c-1.6,0.6-3.6,0.5-5.1,1.3c0.9-1,1.2-3.7-0.7-2.4c-0.9,1.3-3.2,0-3.6-0.5c0.7-2.8-0.7-1.2-1.9-2.7c0.1-1.1-0.2-2,0.7-2.6
			c1.6-0.2,3.2-0.1,4.3-0.8c1.3-0.6,2.3-0.7,3.7-0.6c0.6-1.6,3.1,0.8,4.1-0.5c1-0.4,2.5,0,4-0.2c2.5-0.1,5,0.4,7.3,0.9
			C270.1,78.9,272.7,80.4,274.2,78.5z"/>
		<path class="st1" d="M269.8,91.1c1.3-0.2,1.4,1.3,3.1,1.5c-0.4,1.2-0.7,1.4-1.1,2.6c0.2,0.3,1.8,0.4,2.1,1.5c0.7,1,1.5,1.5,1.3,3
			c-0.7,1-2.6,0.8-3.5,1.9c-0.4,1.8-2.3,0.6-3.6,0.7c-1.4-0.2-2.1,1.2-3.5,0.9c-1.7,0.3-2.2-1.4-3.7-1.7c-1.4-0.6-2.5-1.6-4.1-1.4
			c-1.7,0.4-2.5-1.4-3.5-1.7c-1.4,0.9-3,0.7-4.5,0.9c-1.9-1-4,0-5.9-0.7c-1.4,0.7-2.2-0.7-3.7-0.1c-2,0.1-3.9-0.6-5.7,0.2
			c-1.2,0.6-3.5,0.2-3.9,1.7c-2.4,0.8-1.6-1.6-1.5-3.1c0.2-1.6,3.1-1.3,2.5-3.3c0.1-1.2,1.7-2.3,2.8-2.7c1.8-0.2,3.5-0.8,5.3-0.9
			c0.2,1.6,2.5,1.6,3.4,2.5c0.6,2.5,3.7,2.6,5.7,2c1.4-0.1,3.1-1.1,2.4-2.7c-0.4-1.4-1-3.2,0.7-3.7c1.4-0.5,3-0.4,4.5-1
			c0.9,0.5,1.9,0.1,3.2,1c1.3,0.3,2.5,0.5,3.6,1.2c0.8,1,2.4,1.5,3.5,0.9c1.3-0.4,2.5,0.2,3.9,0.4C269.4,91.4,269.8,90.9,269.8,91.1
			z"/>
		<path class="st2" d="M245.3,130c0.6-1.4,2.6,0.5,3.6-0.8c1.1-0.9,2-2,3.8-1.4c1.5,0,3-0.4,4.6-0.1c1.5-0.2,3.1-0.2,4.5,0.2
			c1.3,0.6,2.9,0.4,4.4,0.8c1.4,0.2,2.8-0.2,3.1,1c0.8,0.1,3.1-0.5,3,0.9c0.5-1.6,1.9,0.1,3.1-1c1.1,1,2.4,0.2,3.5,1.3
			c0.8-0.9,2.9-1.8,3.4-0.2c0.7,1.4,2.5-0.8,3.5,0.2c1.3-0.2,3.2-0.8,4,0.7c2.9,0.9,0-1.6,1.3-2.4c1-1,2-2.2,3.3-2.6
			c1.4,0.5,2.7-0.7,4.3-0.3c1.5,0.4,3.7,0.7,4.2-1.2c0.7-1.1,2.6,1,3.9-0.1c1.6-1,3.4,0.3,5-0.6c1.2,1,2.1,2.1,3.3,3.2
			c2.7,1.3-1,1-0.6,2.1c0.3,1.6,1.4,2.8,3.1,2.3c0.8,0.9,3.6-0.9,3.2,1.1c1.4-0.4,1.8,2,1.9,3c0.5,1.4,1.8,2,3.2,1.2
			c1.5-0.4,2.4,1.4,3.9,0.8c1.1,1,2.6-0.5,4-0.3c1.3-0.6,2.9-0.5,3.2,0.9c0.9,1,2.2,1.7,3.5,1.7c1-1.7,2.2,0.5,3.8,0.3
			c1.3,0.6,2.6,0.1,3.8,1c1.7-0.3,2.2,1.5,3.9,1.3c1.9-1,0.8,0.6,1.7,1.5c0.1,1.5-3.4,1.3-2.8,2.2c1.6,0.7,2.5,1.3,0.1,1.2
			c-1.3,1.2,1.1,1.5,1,3c0.3,1.1-0.4,3.2-1.6,3.4c-1.8-0.5-3.5-0.4-5.3-0.3c-0.2,1.7-2.4,1.2-3.5,1.8c-0.4,1.4,0.2,3.5-1.9,3.1
			c-1.8,0.3-3.8-0.2-5.1,1.5c-3.3,1.2-7.3,0.2-10.2,2.4c-1.6,0.9-2.9-2-3.5,0.6c-1.3,2-4,0.6-6,1.1c-2.7,0-1.9,0.9,0.2,1.6
			c1.7,1,3.9,1.7,5.4,3c-0.7,1.6,1.5,1.9,2.7,1.5c2.3-0.7,4.8-0.9,7.1-0.2c-0.8,1.3-1.7,2.3-3.4,2.2c-1.7,0.2-3.7-1.1-5.1,0.5
			c-1.7,1.5-4.5,0-6.1,1.9c-1.4,1.9-3.9,1-5.8,0.5c0.8-1.3,1.7-3.1,0.1-4.2c-1.7-0.8-3.6-1.3-5.4-0.8c-0.9-1.1,2.1-1.8,3.1-2.4
			c1-0.8,4.3-0.3,3.5-2c-0.8-1.5-3-0.6-4.5-0.7c-2.2,0.1-5,0.4-6.3-1.7c2.2-0.5,1.4-2.5,0-2.8c-1,1.5-3.1,0.6-4.6,1.2
			c-1.6,0.1-3.1,0.6-4,2c-1.8,1.7-3.5,3.6-6,3.8c-2.3,0.6,0.5,3.2-1.8,2.1c-1.4-0.5-2.6,1.1-4.1,0.6c-0.3,1.2-3.2,0.4-3.4-0.8
			c-1.1-0.4,2.6,0.4,1.4-1.3c1.4-0.2,1.3-1.8,2.5-1.9c0.9-0.6,0.8-1.9,0.2-2.9c1-1.2,2-0.6,2.5,0.1c0.2-1.4,1.7,0.6,2.4-0.1
			c0.9-0.5,1.1,0.8,2.6,0.2c0.6-0.6-1.9-0.8-0.7-1.9c0.2-1.5-2.6-1.2-2.4-2.3c-0.9-0.3,0.4-1.5-0.4-2.1c-0.8,0.5-2.8-0.8-2.4-1.6
			c0.5-1.2,0.8-1.6-0.1-2.5c-1.5,1-1.8-1.2-3.1-1.2c-1.4,0.2-2.1,0.4-2.1-0.5c-1.2,0.4-2.1-0.6-3.2-1c-1.1-0.6-2.2-0.2-3.3-0.2
			c-0.9,1.2-3.1-0.5-3.5,0.7c-0.8,0.3-2.8,0.1-3.3,1.3c-1.4,1.4-3.8,0.7-5.6,1.2c-1.4-0.4-2.5,2.1-3.8,0.9c-1.2-0.6-1.8-1-3.6-0.9
			c-2,0.2-3.9-1-5.8-0.4c-1.7-0.3-3.1,0-4.5-1.2c-1.2-0.4-3.4-1.2-3.9-1.6c1-1.4,1.9-2.7,2.9-4.1c3,0.5,0.7-0.6,0.8-2.4
			c-0.1-1.9,2.4-2.6,3.5-3.8c1.6-1.1,3-2.8,5-2.7c2.4-0.9-1.6-2.9,0.8-3c-1-0.6-2.2-2-3.2-3C245.8,130.7,245.8,130.4,245.3,130z"/>
		<path class="st1" d="M244.9,114.6c1.4,0.3,3-0.2,4.5,0c1,0.8,2.8-0.4,3.8-0.5c-0.7-1.7,2.3-0.1,2.5-1.6c1.6-0.5,1.8,0.2,3,0.8
			c2.3-0.8-1.6-1.1-0.3-2.2c1.4-0.7,0.1-2.3,1.7-3.2c1.8,0.6,2.3-1.5,3.8-1.1c0.8,0.5,3-1.4,1.1-1.3c-1.8,0.5,0-2.1,0.5-2.3
			c1.3-0.1,2.3-1.4,3.8-0.8c1.7,0.7,2.3-0.3,3.3-1.4c1.3-0.8,2.6-0.7,3.9-0.3c1.5-1.1,2.2,1.3,3.5,0.5c0.9-0.3,3.6-0.2,3.2,0.7
			c-0.9,1.7,1.5,1.2,2.4,0.7c1.3-0.5,2.6-0.5,4.1-0.2c1.2,0.4,2.4,1.5,3.5,1.6c-1.1,1.5,0.3,2.2,0.3,3.5c-1.7,0.7-0.9,1.7,0.3,2.4
			c1.5-0.1,0.1,1.2,1.7,1.9c0.5,1.7,3.1,1,3.8,2.5c-1.4,1.9,1.2,0.9,2.2,1.3c2.4,0.1,0.8,1.1,2.5,1.8c2.3,0.7-0.9,1.3-1.6,2
			c-1.5,0.8-3.3,0.5-4.8,0c-1.7-0.6-2.6,1.7-0.8,2.3c0.9,0.8,0.6,1.7,0.9,3.1c0.6,1.2,1.9,1.9-0.6,1.7c-1.3,0.6-2.9-0.2-3.9,0.8
			c-0.9,0.8-2.8,1.9-2.5,3.1c1.8,1.7-1.2,1.7-1.9,0.4c-1.3-0.6-2.8,0.6-3.9-0.1c-1.5,1-2.5,0.5-3.3-0.9c-1.2-0.4-2.7,2-3.4,0.6
			c-1.5,0.1-2.3-0.9-3.9-0.3c-1.1-1.2-2.2,1.7-2-0.2c-1.3-0.6-3,0.6-3.4-0.6c-0.5-0.9-2.6-0.1-3.8-0.7c-1.5-0.1-2.9-0.5-4.3-0.7
			c-1.8-0.4-3.6,0.2-5.4-0.1c-1.6,0.6-3.4-0.1-4.9,0.4c-0.7,1.1-2.3,2.2-3.6,1.6c-1.9,0.3-2.1,0.4-1.1-1.6c0.8-1.5-1.3-2.6-2.7-2.6
			c-0.7-0.9,1.6-2.5,2.8-2.6c2.2,0.3,2.1-2,1.2-3.3C246.3,117.8,245.6,116.1,244.9,114.6z"/>
		<path class="st1" d="M265,151.4c1.1-0.6,1.6-0.9,3.2-0.7c1.2,0.2,2.1-0.9,3.4-0.4c1.1-0.2,2.3,0.7,3.2,1.3
			c1.6-0.2,1.4,0.2,1.8,0.8c0.9-0.5,2.9-0.6,3.1,1c1.2-0.2,2.5,0.2,2.1,1.1c0,1-1.2,2.4,0.8,2.7c0.8,0.8,2.1-0.1,1.4,1.6
			c-0.2,0.4,0.3,1.5,1.6,1.8c1.8,0.2,0.3,2.1,1.1,2.4c1.9,0.8-0.4,0.8-1.2,0.8c0.1-1.5-1.7,1-2-0.8c-1.4,0.3-1.3,0.8-2-0.4
			c-2.3,0.2-1,1.6-1.3,2.8c0.4,1.3-1.7,0.7-1.7,2.1c-1.8,0.1-0.6,2.2-2.2,1.9c-1.4,0.5-1.8-0.7-1.4-1.7c-1.1-2.3,1.8-4.6,0.2-6.9
			c-0.2-1.9-2.4-1.6-3.2-3.1c-1.8-1.7-3.1-3.7-4.4-5.7C266.7,151.7,265.9,151.2,265,151.4z"/>
		<path class="st1" d="M148.8,211.9c-1.5-0.2-3.6-1.7-2.6-3.4c0.6-2.1,0.9-4.8-0.4-6.6c-1.7-0.7-1.6-2.8,0.5-2.2
			c2.2,0.5,3.9-1,5.6-2.1c1.3,1.3,3.1,2.8,3.1,4.8c-1.5,1.4-0.7,3.4-0.6,5.1c-0.3,1.1-0.8,4-2.3,2.9
			C150.4,209.7,149.9,211.1,148.8,211.9z M188.8,226.5c-1.9,0.2-3.3-1-4.7-2c-3.6-0.8-6.6-3.2-10.3-3.5c-2.2-0.7-0.5-3.6,1.2-3.4
			c1.6,1.2,2.8-1.5,4.1-0.2c2.6,2.1,6.1,0.7,9,0.4c1.2,0,4-1.7,3.9,0c-1,1.6-3,3.7-1.8,5.6c1.7,1-0.4,2.3-1.2,3.1
			C189.1,226.1,188.9,226.5,188.8,226.5z M181.3,169c-1-1.9-2.4-0.1-3.9-1c-0.6,1-2.4,1.1-3.7,1.7c-1.3,0.4-2.1-0.2-3,1.5
			c0.7,0.5,2.2,1.8,1.9,2.9c-1.9,0.3-1.4,2.5-0.5,3.5c1.3,1.7,3.1,2.7,5,3.4c1.7,0.7,3.9,1.4,4,3.5c0.7,2.4,2.5,4.2,4.5,5.8
			c1.4,0.7,1.9,2,3.5,2.2c2.2,0.7,4.4,0.6,6.6,0.3c2.6,0.6-0.2,1.6-0.9,2.6c1.9,1.4,4.4,1.5,6.5,2.5c2.6,1,5.1,2.3,7.6,3.4
			c0.6,1.4,2.7,1.5,3.1,3.2c-0.4,1.2-0.9,3.2-2.3,1.5c-1.6-0.4-0.9-2.9-3.1-2.6c-1.6,0.2-3.1-0.6-3.4-1.5c-1.9-0.5-2.3,2-3.7,2.7
			c0.1,1.3-1.4,2.9,1,3.2c1.5,0.6,3.1,0.9,2.4,2.9c1.2,1.9-1.4,1.4-2.5,1.8c-2.3,0.3-0.1,2.9-1.9,3.3c-1.6,0.6-1.7,3.4-3.8,3
			c-1.7,0.4-2.2-2.5-0.4-2.5c1.6-1.2-0.6-2.8,1.8-2.8c2.1,0-0.3-2.1-0.2-3.2c-0.1-1.8-1.8-2.9-1.8-4.7c-0.7-2.2-2.5,0.6-3.7-1.2
			c-2.2-0.6-1.2-1-1.5-2.8c-0.9-1.8-3.2-0.1-4-0.5c2.1-0.7-0.7-2.2-1.7-1c-1-0.3-1.2-2.7-2.7-2.9c-2.1-0.8-4.6-0.4-6.5-1.8
			c-2.6-1.9-5.5-3.7-8-5.8c-3.8-1.2-6.3-4.5-7.5-8.1c-1.3-2.8-4.2-4.1-7.1-4.6c-1.8-0.8-3.9-0.7-5.4,0.6c-1.7,1-3.2,2.5-5.4,2.5
			c0.7-1.4,0-2.8-1.9-2c-1.3-0.2-3.4-1.1-3-2.6c1.8-1,1.1-2.2-0.9-2.4c-2.2-1.4,0.4-1.4,1.4-1.7c2.3-1,0.5-1.4,0.2-2.8
			c-2.6-0.7-0.6-2,1-1.8c1.6,0.3,3-1,4.6,0c1.9-0.3,1.3-2.4,2.5-2.8c1.9-1.7,1,1.2,3,1.6c0.8,0,1.8,2.9,2.6,0.7
			c0.1-1.4,1.3-2.7,2-3.3c0.7,0.9,1.7,1.9,3,0.9c1.2,1,2.4,0.4,1.3-0.9c0.1-2,3.3,1.1,2.3-1.2c-0.1-2.1,2.4,0,3.7-0.5
			c0.9-1.4,2.3-1.4,3.8-1.5c1.2,0.9,3.7-1.3,3.7,0.3c1,0.7,2,2.2,3.7,2c2,0.7,4.4,0.2,6.2,1.2c-0.4,1-2.6,1.5-0.1,2.1
			c-0.9,0.9-0.4,1.7,0.5,2.6C180.9,167.9,181.9,168.3,181.3,169z"/>
		<path class="st1" d="M238.6,146.2c-1.2-0.8-3.3-0.7-4-1.9c-1.5-0.2-2.6-1.3-4.1-0.7c-1.7-0.7-2.6,1.7-4.2,0.1
			c-1.4,0.2-3.2-0.2-4.1,1.3c-1.6,0.6-1.7-0.6-2.6-1.2c-0.9-0.7-2-1.7-3.1-0.4c-1.3,1.1-2.2-0.5-3-1.4c-1.8-0.3-1.2-2.3-3.4-1.9
			c-0.9-1.3-3.1,0.9-3.2-0.8c-0.8-0.9-0.2-1.5-2.5-1.3c-0.7-0.4-3.9-1.8-2.8-0.2c1,0.7-2.4,2.2-2.8,0.6c-1.4-1-2.6-1.4-0.4-2.3
			c-1-1.3-2.8,0.3-3.4-0.6c-0.9-0.8-2.7-0.4-3.9-1.1c0-1.3-2.7-1.6-2.1-0.1c-2.7,0.4,1.4-1.9-0.3-2.9c-1.5-1-1.4-1.6-2.3-2.9
			c1-0.8,1.3-2.7-0.3-3.1c0.2-1.5,0.3-2.3-1.7-2.9c-2.7-0.5,0.5-1.5,0.7-2.9c0.2-1.2-1.9-3.8,0.7-2.4c1-0.3-1.2-2.6,0.8-2.5
			c2.8-0.4,5.5-1.2,8.3-1.3c2.2-0.6,3.9-2.3,6.3-2.5c3.2-0.7,6.5-1.6,9.8-1.2c1.9,0.7,3.5,1.4,0.7,0.4c-1.4-0.6,0.4,2.4,1.3,2.5
			c2.5,0.7,4.9-0.6,7.2-1.3c-0.7,0.5-4.3,1.3-2.9,1.9c2.2-0.5,4.1-2.1,6.4-1.7c5.8,0.5,11.7,0.2,17.6,0c1.6,0.3,2.7,1.1,3.2,2.6
			c1.3,2.4,2.4,5,3.1,7.7c-0.4,1.7-2.9,0.8-4,2c-2,1.6-0.2,1.6,1.2,2.3c2,0.8,0,2.7,0.2,3.9c0.7,1.2,1,2.5,2.5,3.5
			c2.5,1.1-0.9,1,1.2,2.4c0.4,2.1-2.1,1.3-3.1,2.3c-2.1,1.4-4.3,3.1-6,4.8c-1.2,1.3,1.7,3.6,0.2,3.4
			C239.4,146.2,239,146.1,238.6,146.2z M183.1,114.6C184.4,114.5,184.1,116.2,183.1,114.6L183.1,114.6z M185.7,114.9
			C184.4,116.2,183.5,113.7,185.7,114.9L185.7,114.9z"/>
		<path class="st1" d="M201.8,148.8c0.3-0.9,1.5-2.2,2.6-1.4c1.3,0,2.7,0,3.7-0.8c0.6-0.7,1.9-0.8,2-2.2c1.4,0.1,2.1-1.9,3.6-1.2
			c1.3-1.1,2.1,1.8,3.2-0.2c1.4-1.1,1.9,0.7,3.1,0.7c0.1,1.3,1.2,1.7,2.4,1.1c0.8-1.4,2.8-1,4.1-1c1.5,1.4,2.5-0.9,4.2-0.2
			c1.4-0.4,2.8,0.4,3.9,1c0.7,1,3.4,0.9,3.7,1.9c-1.1,1.3-1.9,3.1-3.2,4.1c-1.6,0.5-3.2-0.3-4.4-1.3c-1.9,0.2-4-0.2-5.7,0.6
			c-1.5,1.2-3.1,2.7-5.1,1.9c-1.7,0-3.6,0.3-5,0.7c-0.4,2.1-2.4,1.3-4,1.4c-2,0.1-4.1-0.2-5.9-1.1c-1.2,0.9-2.7-1-3.4-1.9
			C201.7,150.2,202.2,149.4,201.8,148.8z"/>
		<path class="st1" d="M182.3,148.9c-0.7-1.3-1.9-2.5-3.2-2.4c-1.2-0.6-2.5-1.8-3.6-2.3c-1.3,0.1-2.4-1.3-3-2.1
			c1.1-2.1-0.1-1.8-1.3-3.3c0.3-1.3,2.3-0.9,3.4-1.7c1.5,0,2.4-0.7,3.5-1.4c1.3-0.1,2.3-0.6,3.7-0.8c0.5-0.7,4.3-0.3,2.7-1.4
			c0.8-1.2,2.1,0.8,3.1,1c1.7-0.1,1-1.3,2.6-1.3c0.9,0.9,2,1.9,3.6,1.7c1.5,0.2,1.9,1.4,3.4,0.6c3,0.2-0.8,1.3,0.3,1.9
			c1.4,0.1,2.2,2.9,3.6,1.3c2.2,0.1-0.9-2.6,2-1.3c0.8,1.1,4.1,0,3.2,1.3c1-0.5,0.7,2.5,2.7,0.9c0.8,0.9,3.6,0,3.3,1.6
			c0.8,0.6,3.1,1.8,1.1,2.1c-1.3-0.4-1.9,1.4-3.2,1.3c-0.1,1.3-1.3,1.6-2,2.2c-0.8,0.6-2.1,1-3.1,0.8c-1-0.1-2.5-0.4-2.9,0.9
			c-0.5,1-2.4-1.1-3.6-0.1c-3.2,0.8-6.3-0.8-9.4-1.3c-1.3,1.3-2.6,3.2-4.7,2.6C183.7,149.4,183,148.9,182.3,148.9z"/>
		<path class="st1" d="M214.1,166.9c-2.2,0.8-4.9,1.2-7.1,0.3c-2.2-1.6-4.8-2.4-7.2-3.7c-0.9-0.8-2.8-2.3-2-3.4
			c2.1-0.7-0.5-2.6,1.1-3.1c3-0.7-1.7-1.4,0.1-2c1.1,0,3.8,1.2,3.6-0.8c1.3-0.5,2.6-1.9,4-0.7c2.5,0.8,5.1,0.4,7.6,0.6
			c0.4-1.9,2.2-1.7,3.8-2c2-0.6,4.3,0.7,5.9-1.1c1.1-1.2,2.5-1.6,4.1-1.4c1.6-0.1,3.2-0.3,4.4,1c1.6,1,3.5-0.5,5.1,0.8
			c1.4,0.6,2.9,1.1,4.2,2c-1.6,1.8-4.5,1-6.1,2.8c-2.6,3.1-4.2,7.7-8.4,9c-1.8,0-3.4,0.7-5.2,0.3
			C219.1,164.9,216.6,166.1,214.1,166.9z"/>
		<path class="st1" d="M223.9,165.3c1.8-0.5,3.9,0,5.3-1.5c2.9-2,4.1-5.6,6.5-8.1c1.7-1.7,4.5-1,6.1-2.8c1.6,0.2,3.1-0.1,4.7,0.2
			c1.8,0.4,3.8,0.5,5.6,0.3c0.3,1,2.1,1.7,3.3,0.8c1-1.3,3-0.6,4.5-1c1.9,0.5,2.7-1.2,4-1.7c1.7-0.4,3.8-0.2,4.5,1.6
			c1.3,2.1,3,4.1,4.9,5.6c1.6,0.3,2.1,2.2,2.3,3.6c-0.1,1.8-1.5,3.4-0.7,5.2c-0.5,1.4,0.5,1.5,1.3,2.7c1.6,1.1,2.8,0.3,4.1,0.1
			c1.4-0.5,2.8-1.1,4.3-0.4c1.5,0.8-0.4,2.7-1.3,3.3c-1.9-0.1-3.5,0.8-4.4,2.3c-1.2,1.5-1.2,3.5-1.5,5.3c-3.2-0.6-6.5-1.4-9.5-2.8
			c-2.5-1.6-5.2,0.7-7.7,1.4c-1.7,0.9-3.5,1.4-5.3,0.6c-1.7-0.6-3.4-0.7-5,0.2c-2.3,0.3-4.5-1.9-6.9-0.8c-2.3,1.1-1.9-0.5-2-1.3
			c-1.2-0.6-3-0.8-3.3-2.3c2.1-0.8,2-0.9-0.2-1.7c-1.2,0.7-1.9,2.3-3.2,0.7c-1.6-0.4-2.4-0.8-3.7-1.3c1.1-0.9,1.1-0.6,0.2-1.3
			c1.9-1.2-1.3-1.4-2.2-1.9c-1.6-0.6-2-1.8-2-2.9C225.9,166.4,223.7,166.7,223.9,165.3z"/>
		<path class="st1" d="M237,190c-0.2-1.5,0.2-3.2,2-3.5c1.7-0.3,2.6-2.2,0.7-2.9c-0.8-1.1-3.1-1.7-2.7-3.3c0.9-0.8,1.9-3.2,3.2-2.4
			c2.7-0.1-0.3,2.2,1.7,2c2.1-0.8,4.2-0.7,6.2,0.3c2,1.1,3.8-1.4,5.8-0.2c1.9,0.6,3.9,1.2,5.6,0c2.5-0.8,4.9-2.6,7.6-2.2
			c2.9,1.7,6.3,2.4,9.6,3.1c1.5,0.2,0,3-1.4,2c-1.5,0.3-1.9,2.2-2,3.6c0.2,1.7-2.9,1.3-2.5,3.3c1.3-0.2,2.4,1.6,2.8,2.8
			c-2,0.1-4,0-6-0.3c-1.9-0.1-3.1,1.8-4.5,2.5c-2.3-0.7-1,2-2.3,2.4c-2,0.6-4.1,1.2-6,0.1c-2.3-0.8-4.7-2.1-7-0.8
			c-2.2,0.8-4.6,0.5-6.8,1c-0.1-1.4,0.7-3-0.5-4.3C239.8,191.4,237.3,191.7,237,190L237,190L237,190z"/>
		<path class="st1" d="M252.5,238.2c0.5-1.6-2.3-1.6-3.5-1.7c-1.5-0.2-3.1-0.1-4.5-0.6c-0.3-1.3,1.4-2.7,1.6-2.1
			c0.4,1.6,2.6-0.5,2.6,0.7c-0.7,0.2,1.5,1.4,2.4,0.9c1.5-0.4,2.9-0.3,4.1,0.3c1,0.7,3.8-0.6,3.6,0.6c-0.1,1.7,2-0.3,2.9,0.1
			c1.6-1.7,0.6,2.3-0.9,1.3C258.2,237.7,255.3,237.9,252.5,238.2z M222.6,208.2c1.1-2.1,2.9-3.6,4.5-5.3c0.6-1.5,1.4-2.9,3.3-2.5
			c1.6,0,2.8-0.7,3.7-1.8c1.6-0.9,3.6,0.6,5.1-0.7c3.1-1.3,6.6-0.5,9.7-2c2.6-0.5,5,1.2,7.5,1.8c1.6,0.3,3.2-0.5,4.8-0.8
			c0-1.5,0.4-2.8,2.3-2.3c2.3,0.4,1.4,2-0.1,2.8c-0.9,0.7-1.9,3.1-2.4,3.2c0-1.8-2.8-0.7-4-1.2c-1.7,0.1-2.6-1.4-4.1-0.2
			c-1.6,1.2-2.1-1.7-3.5,0.4c-1.1,1.5-3.2-0.1-4,0.8c0.5,1.6,1.9,1.8,3.2,2.8c2.2,1.5-0.2,0.7-1-0.1c-1.4-1-3.3,0.4-1.2,1.1
			c2,1-0.8,1.6-1.3-0.2c-1.2-0.9-3.1-0.6-1.3,0.7c2.1,0.7,1.2,1.2-0.7,0.8c0-1.3-1.5-2.2-2.8-2.8c-1.1-0.4,0.8-2.8-1.3-1.1
			c-1.4,0.3-0.6,1.8-1.1,3.1c0.7,1.3,2,1.9,2.3,3.3c0.8,0.6,3.5,2.2,1.8,2.9c-0.1,0.1-1.2-2.6-2.6-1c1.5,1.1,0.8,2.7-1.1,2.6
			c-0.4,0.3,2.5,0.7,3.1,1.4c1.2,0.2,2.6,1.1,3.4,1.9c0.7,0,3.7,0.7,2.3,1.6c0.4,0.8,1,3.9-0.6,2.4c-1-0.8-1.9-2.7-3.5-1.8
			c-2.1,0.4-2.5,0.4-1.4,1.9c0.1,1.5,2.6,0.4,2.2,1.8c-1.4,0.5-2.5,1.2-2.8-0.3c-1.7-0.6-2.7-0.4-1.5,1.5c0.9,1,1.3,2.5,1.6,4.1
			c-0.5,0.4-3-1.7-3.5,0.4c-0.9,0.6-1.5-2.5-2.9-2.8c-0.9,1.8-2.5,1-3-0.6c1.4-1.4,0-2.9-1.3-3.8c-1.6-0.8,0.1-3.1,1.2-3.1
			c1.6,0.7,2.8-1.5,4.3-0.1c1.7,0.4,3.7,2.3,5.3,0.7c1.8-1-1.8-0.8-2.5-1.6c-2.8-1.4-6.2-1.1-9.2-0.3c-1.2-0.4-1.9-2.2-2.9-3.2
			c1.3,0.1,3.7-1.1,1.3-1.6c-1.9,0.9-3.4-1.2-5-2C223,208.8,222.8,208.4,222.6,208.2z"/>
		<path class="st1" d="M89.9,117.2c1.3,0.5,3.3,1.5,3,3.2c-2,1.2-1.4,2.4,0.7,2c1.8-1.7,4.7-1.1,6.9-0.3c1.3,0.7,2.2,2.6,1.5,3.9
			c-1.3,1.9-4.1,1.9-5.6,3.6c-0.5,0.9-4.8,1-2.4,1.2c1.8,0.2,3.6,0.6,5.3,0.2c2.1,0.6,0,2.6-1.5,2.5c-0.8,1.2-2.3,0.2-3.8,1.2
			c-2,1.4-4.3-0.6-6.4,0.3c-1.6,0.9-3-0.6-4.5-0.1c-1.8,0.3-3.6,0.4-5.4,0.6c1.1,2-2.3-0.6-3,0.9c-1.5-0.7-2.9-1.1-4.4-0.5
			c-2.4-0.6-1.7,1.5-2.9,2.6c-1.3,1.1-2.3-0.9-3.7-0.9c-1.2,0.7-3,0.1-4.4,1.1c-1.3,0.6-2.2,2.5-3.6,1c-3-0.2-1.2-0.8,0.7-1.4
			c1.4-0.5,2.2-2,3.8-2.2c1.6-1,1.2-2.6,3.1-2.7c-0.1-1.6,2.4-1,3.6-1.1c1.4,0.2,3.4,0.6,4.5,0c0.1-0.7,3.3-3.3,1-2.4
			c-2.3,1.4-4.9,0.7-7.2-0.3c-2.5-1.1-5.7,0.4-7.9-1.3c-0.2-1.4,2.5-1.5,3.8-1.8c1.6-0.4,3.7-1.1,3.4-3.1c0.7-2.2-1.5-1.5-2.9-1.6
			c-0.9-0.6,1.7-2,2.8-2.1c2.5-0.8,5.3-0.3,7.9-0.8c-1.3-1.2-0.8-2.9-0.1-4.3c1.4-2.3-1.5-1.1-2.7-1.7c-1.8-0.5-1.7-2.4-0.2-3.3
			c2.5-1.1,0.1-1.4-1.4-1.5c-1.7,0.9-3.7,1.4-5.6,0.5c-0.7,1.3-2.5,1.1-3.9,0.6c-1.6-0.7,1-2.3,1.5-3.2c2.2-1.3-1.4-1.6-0.8-3.3
			c2,0.2,2.2-2.8,0.3-2.1c-1.2,1.4-2.9,1.2-4.3,2c-1.7-0.1,0-2.8,0.9-3.6c1.9-1.2-1.2-3-1.7-1.2c-1,1.4-3.6,0.5-1.9-1.1
			c1.1-1.1,2.8-2,1.3-3.7c2.4-0.2,1.3-1.6-0.2-2.4c1-1.8,2.8-0.3,4.2-0.8c0.9-0.5-3.2-2.8-0.2-2.5c3.3,0.2-0.9-1.5,1-2.4
			c1.2-1,2.7,1.3,4.2,0.5c2.6-0.3,5.4-1.1,7.9-0.5c1.7,1.2-1.7,1.9-2.6,2.4c-1.7,0.8-4.1,1.1-4.6,3.2c1.5,1.2,3.7,0.4,5.5,0.4
			c2.7,0.1,5.4,0.3,8.2,0c2.2,0.9,0.4,2-0.3,3.3c0.4,1.3-2,2.3-2.7,3.4c-0.4,1.2-3.9,1.1-3,1.5c1.6,0.5,3.2,1,0.7,1.5
			c-1.6,0.2-2.9,1-4.7,0.6c-2.7-0.3,0.5,0.9,1.5,0.8c2,0.8,3.9-1.5,5.9-0.2c1.8,0.1,2.9,1.3,4.2,2.3c2.1,0.3,1.2,2.1,2,3.4
			c0.6,1.9,2.2,3,4.2,3c1.6,0.5,2.6,2.3,4.1,3.2C90.6,114.6,88.4,116.7,89.9,117.2L89.9,117.2z M54,105.4c-1.4-1.5,1.8-3.4,1.4-0.9
			C55.3,104.9,54.5,105.6,54,105.4z M50.7,114.3c-0.2-1.9-4,0.5-3-1.3c-1.3-0.3-2.8-2.6-3.6-0.4c-1.8,1-4,0.8-5.6-0.6
			c-1.8-1.6,3.5-1.2,1.4-2.1c-1.8-0.9,2.5,0,2.5-1.7c0.1-1.7,2.2-1.4,3.6-1.8c1.8-0.5,3.5,0.4,5.2,0.1c1,0.9,2.4,2.3,2.2,3.8
			c0.6,1.2,1.2,2.7-0.7,3.5C52.2,114.1,51.4,114.3,50.7,114.3z"/>
		<path class="st1" d="M50.7,114.3c-2.7-0.1-0.3,1.6,0,3c0.4,1.5,1.2,3.2,0.8,4.8c-1.4,0.8-1.7,2.6-2.4,3.7
			c-1.5-0.3-2.9,0.1-4.2,0.6c-2.7-0.1-5.2,0.7-7.5,2c-1.3,0.9-2.7,1.4-4.3,1.4c-1.9,0.9-4,0.9-6.1,1c0.6-1.8-0.3-3-2.2-2.2
			c-2.6-0.8,1.5-2.3,0.7-2.1c-1.3,0.3-4.5-0.4-1.7-0.7c1.4-0.1,3.6,0.7,3.6-1.4c0.7-1.6,3.5,0,4-1.6c-0.6-0.4-4.5,1-2.2-0.8
			c-0.5-1,1.1-2.6,2.7-2.2c2.2-0.8-0.5-0.9-1.5-1c-1.5,0-2.9-0.7-4.3-0.3c-1.9,0-0.4-1.7-0.7-1.8c1.7,0.3,2-1.7,2-2.1
			c-1.4-0.5-3.9,0.3-2.1-1.8c1.1-1.4,2.6-0.7,4-0.4c1.9-0.5,3.9,0.2,5.8,0.3c-1.8-1.8,2-1,2.3-2.5c-0.1-0.8-3.5,0.2-3.7-0.5
			c1.7-0.3,2.2-1.2,2.9-2.8c1.2-0.5,2.9-1.2,4-0.9c0.8,1.3,3.3,1,1.3,2.7c-0.9,1-4.1,0.3-1.3,1.5c-1.5,0.2-3.7,1.1-1.4,2.2
			c1.4,0.8,3.1,0.9,4.6,0.1c1-2,2.3-0.3,3.7,0.3c-0.9,1.9,2.7-0.4,3,1.2L50.7,114.3L50.7,114.3z"/>
		<path class="st1" d="M33.7,192.9c-1.3-1.5,1.8-2.9,0.6-4.1c-0.8-1.5-1.9-2.2-3.5-2.5c-0.6-2.1,2.3-2.9,3.9-2.8
			c1.7,0.3,2.9-0.4,3-1.9c2.7-1.9,5.7,0.8,8.6,0.7c2.5,0.3,4.7-1.4,7.1-1c4.8,2.4,10.4,0.9,15.5,2c1.6-0.4,3.2-1.9,4.9-0.7
			c1.3,1.1,2.8,1,4.4,1.1c0.8,1,4.3,0.1,2.9,1.7c0.6,0.7,2.7,0.3,3.9,1.1c1.4,0,2.2,1.5,3.7,0.8c1.1,1,2.8,0.5,3.7,1.1
			c2.1,0.2,2.3-0.7,3.6-1.1c1.3,0.6,3.7,0.1,4,1.8c0.1,1.8,2.7-0.4,3.4,1c1.3,0.1,2.8-0.1,4.3,0.4c0.7-0.4,3.4-1.5,3.7,0
			c0.1,1.2,1.2,3-0.9,3.4c-1.8,1.2-4.4,1.3-5.7,3.1c-2.7,0.7-5.8,0.7-8.2,2.2c-1.7,1,1.2,2.2-1.5,2.3c-1.5,0.5-1.9,2.5-3.3,3.3
			c-1.6,1-2.3,2.8-3.2,4.4c0.7,1.6,1.2,3.5,3.2,3.9c1.4,1.1-1.9,1.6-2.6,2.3c-1.3,0.8-2.1,2-2.9,3.2c-1.3,1.2,0.5,3.2-1.9,2.8
			c-2.4-0.2-5.3,0.8-5.7,3.5c-0.7,1.3-2.2,2.3-3.4,1.4c-1.6,0-2.6,1.4-4.3,0.5c-3,0.1-6.2-0.1-9.1,0.3c-1.3,1.4-3,1.7-4.8,1.9
			c-1.1,1.6-1.5,1.8-1.8,2.2c-1.7,0.9-3.5-0.7-4.8-1.6c-0.1-1.7-2.2-2-1.5-3.3c-1.3-1.8-3.7-2.5-5.9-2.6c-1.9,0.5,0-2.3,0.3-3.2
			c0.2-1.3,3.9-2,2.4-3c-0.9-1.1-4,0-2.5-2.1c0.4-1.3,3-2.4,2-3.6c-0.4-1.1-3.1-2.5-2.3-3.3c1.2-0.4,3.6-0.2,3.2-2.1
			c-0.4-2.3,0.5-4.5,0.1-6.7c-0.3-1.8,2.2-1.7,3.3-2.4c2.1-0.3,1.6-2.1-0.2-2.6c-1.3-0.6-2.1-2.9-3.8-1.7c-1.9,0.9-4.2,0.1-6.2,0.3
			c-1.1-1.7-2.6-1-4.2-0.5C34.8,192.6,34.2,192.8,33.7,192.9z"/>
		<path class="st1" d="M42.3,223.4c-1.5,0.7-3.1,1.9-4.8,0.9c-1.5-0.1-3-0.6-4.3,0.3c-1.8,0.6,0.2-2.3,0.3-3.2
			c0.4-1.8-1.1-2.8,0.1-4.3c0.4-1.8-0.1-2.4-2-1.7c-2.2-0.5,0.2-1.5,1.3-2c-0.5-2.6-1.4,1-3,0.4c-2.1-0.1,0.3-2.4,0-3.6
			c-0.4-1.4,1.8-1.7,2-3.2c0.9-1.5,0.9-2.8,1.2-4.3c0.4-1.8,2-3.7,0.8-5.5c-0.3-1.3-1.2-3.1-0.4-4.2c1.3-0.8,3-0.9,4.5-1.5
			c1.1,1.5,2.8,1.4,4.4,1.4c1.7,0.4,3.1-0.4,4.6-0.6c1.4,0.5,2.1,2.2,3.7,2.6c1.8,1.3-1.4,2-2.4,2.5c-1.7,0.1-2.2,1.7-1.7,3.1
			c-0.1,2-0.5,3.9-0.2,5.9c-0.3,1.6-2.6,1-3.7,1.8c1.2,1.1,2.2,2.4,3.2,3.6c-1.2,1.3-2.5,2.6-3,4.3c1,0,4.4,0.6,3,1.7
			c-1.8,0.9-3,2.5-3.3,4.5C42.5,222.9,42.4,223.1,42.3,223.4z"/>
		<path class="st1" d="M144.7,95.8c0.8-1.1,1.9-2.7,3.4-2c2.2-0.3,4.8,0,6.3-2c1.1-1.4,3.1-1.6,4.8-1.6c2.1-1.7-0.5,1,0.4,1.8
			c-0.1,1.3-1.3,2.8-2.9,2.5c-1.8,0.2-3.5,0-5.2-0.1c-1.8-0.5-2.6,0.6-3.4,1.9C146.5,97.4,146,96.9,144.7,95.8z M153.2,107.9
			c-1.9,0.1-3.8,0.4-5.7,0.3c0.4-1.7-0.2-3.2-1.7-3.7c-1.3,0.8-3-0.6-0.9-1.6c1.9-1.1-1.7-2.2-0.5-3.8c0.1-2.4,2.5-0.1,3.6-0.7
			c0.8-1.8,2.3-2,3.1-0.5c1.9,0.4,0-3.5,2.3-2.7c1.4,0.1,3.5-0.2,4.5,0.5c-0.4,2,1.3,2.6,3,2.3c2.3-0.5,1,2.7-0.5,2.6
			c-0.5-0.2-3.3-1.3-2.4,0.7c-0.6,1.4-1.7,2.3-3.2,2.2c0.5,0.7-1.7,1.2-1.4,2.8C153.6,107,152.1,107.7,153.2,107.9z M169.4,107.8
			c-0.8-1.6-2.3-1.4-3.8-1.5c-0.9,0-2.5-3.2-1.1-3.1c1.6-0.9,2.5-2,3.6,0.1c2.1,1.6,1.5-1.8,2.6-2.1c2-0.8,2.4,1.3,1.6,2.7
			c-2.8,1-0.1,1.6-0.3,2.3C171,106.7,170.4,107.6,169.4,107.8z"/>
		<path class="st1" d="M140.2,155.7c-0.8-1.2,0.4-2.6,0.2-3.8c1.4-0.9,0.6-2.9,2.3-3.6c1.8-1,2.1-2-0.2-2.1
			c-1.7,0.6-2.6-1.1-3.9-0.6c-1.6,0.1-2.7,0.2-4.1-0.9c-1.8-0.8-1.4-2-0.6-3.2c-1-0.1-3.6-1.2-2.4-2.5c1.8-0.9,0.4-3.3-1.1-3.7
			c0.9-1.4-1.3-1.9,1.1-2.6c-0.9-0.6,1-2.4-0.6-3.3c-2.2-0.7,1.1-2,2-1.1c1.7-0.1,3-0.9,3.7-2.2c2-1-0.2-2.1-1.5-2
			c-0.3-2,2.7,0,2.3-2.2c1.4-0.8,1-3.1-0.4-3.3c-0.5-1.6,1.6-2.2,2.9-2c1.3,0.2,3.3-0.9,4,0.7c-0.2,2.1,1.6,0.4,1.4-0.2
			c2.5,1.5,0.2-1.2,2-1.7c1,0.5,5,0.2,2.3-0.3c-1-0.8,0.1-1.2-0.8-2c1.5-0.8-3.7-0.2-0.7-1c2.5-0.1,0.7-1.6-0.3-2.5
			c-1.4-1.7,1.6-1.2,2.7-1.4c1.7-0.2,3.3-0.4,4.7,0.9c2.5,0.5-0.2,3,1.6,2.3c0.9,0.7,2.3,0.4,3.5,1c1.1,0.4,4.1-1.1,3,1
			c-1.9,0.5-2.4,1.9-0.1,1.3c1.2-0.1,2.7,1.1,3.6-0.8c2.5-0.1,4.8-1,7.1-1.9c1.6,0.1,2.3,0.1,3.6,1.3c1,1.4,3.3-0.6,3.5,1.1
			c-0.3,1.9,2,1.6,2.8,2c1,0.4,1.9,2.5,1.2,3.6c-1.2,1-2.3,2.1,0.1,2.5c2.5,0.4,0.2,2.1,1.7,2.9c1.5,1-0.2,2.3,0,3.3
			c0.5,1.4,1.5,1.6,2.5,3.1c0,0.9-1.1,3.3-2.5,2.5c0.1-1.9-3.1-1-1.7-0.2c-1.4,0.4-2.8,0.7-4,1.1c-1.4,0.3-2.5,0.3-3.5,1.1
			c-1.2,0.6-2.4,0.7-3.9,1.3c-1.3-0.3-3.3,1.1-1.6,2.2c2.3-0.1-0.3,1.9,1,2.8c0.4,1.5,2.4,1.3,3.3,2c1,0.8,2.4,2.1,3.6,1.8
			c0.8,0.5,3.5,2.5,1.4,2.9c-1.4,0.8-2.9-0.9-3.2,1.4c-1.1,0.7-3.6,0.7-3.9,1.8c1.7,1.4,0.8,2.1,1.9,3.1c-0.5,2.2-1.7-0.6-2.6-0.4
			c-1.6-0.1-2.7-0.3-4,0.4c-1.6-0.2-2.9,0.3-4.2,0.6c-0.8,1-3.1,1.1-3.7-0.2c-1.8-0.4-2.6-0.2-3.2,1.1c-1.5,1.3-1.2-0.6-2.6-1
			c-1.2-0.8-2.5,0.4-3.9-0.7c-1.3-0.6-2.9-0.1-4.3-0.5c-1.4-1.2-1.6,1-2.6,0.8c-1.3-0.4-2.8,0-4.1,0.2
			C140.8,155.9,140.5,155.8,140.2,155.7z M183.6,115.2c-1.1,0.2-3.5-0.7-1.9-1.2C182.4,114.3,183.2,114.4,183.6,115.2z"/>
		<path class="st1" d="M153.2,156c0.8,1.2-0.5,2.3,0.4,3.2c1.7-0.5,2.3,2,3.9,0.9c2.1-1.6,1.2,1.1,1.4,2.3c-0.9-0.7-3.6-0.4-1.8,0.9
			c-0.4,2.5-1.5-0.8-2.9,0.6c-1.4,1.1-1.8-2.5-2.9-0.7c-0.5,1.2-1.3,2.5-1.7,3.7c-1.7,0-1.1-1.7-3-2c-1-1.6-1.1-1.8-3-0.5
			c0.7,1.3-1.5,3-2.8,2c-1.3-0.3-3.2,1.1-4.2,0c-0.5-1.2-0.5-4.1-2.4-3.1c-1.6,0.2-2.4,2.8-4.1,1.8c1.5-0.9-0.4-3.1,1.9-3.5
			c1.1-0.9,1.3-1.9,2.8-2.6c1.9-1.4,1.1-1.3,1.7-2.6c1.3-0.1,2.5,1,3.7-0.5c1.3,0,2.6,0.2,4-0.3c2.3,0.9,0.9-0.6,3-0.8
			c0.9,0.1,2.4,0.8,4,0.5C151.8,155.4,152.6,155.7,153.2,156z"/>
		<path class="st1" d="M153.2,156c1.3-0.1,2.7-0.4,3.4,0.8c0.2,1.2,2.2,1.1,2.4-0.6c0.4-0.4,3.1-0.7,3.3,0.8c1.6,0.2,2.9-0.5,4.1-1
			c1-1,3.4,0.4,4.1-0.9c1.3-0.1,2.8,0,4,0.4c-0.1,2.2,3.1-0.1,1-0.6c0.7-0.5-2.3-2.5-0.6-3.1c1.3-0.7,3.8-0.4,3.6-2.5
			c1.4,0.6,2.7-0.1,4.1-0.4c1.9,1,4.3,0.8,5.5-1.1c0.9-1.8,2.8-0.2,4.2-0.1c2.2,0.6,4.4,1.1,6.6,0.5c1.3-0.4,3.6,0.3,2.8,2
			c-0.7,1.7,2.4,2.3,2.3,3.2c-2,0.3-1.2,2.5-3.5,2c-1.4-0.9-3.3,0.3-0.9,0.6c0.6,1.2-3,1.3-0.9,2.8c-0.3,1.8-2.6,1.8-3.5,2.5
			c0.7,2-2.5-0.4-3.3,1.1c-2.1-0.4-4.3-0.4-5.8,1.4c-1.2-0.1-2.8-0.3-4.2-0.6c-3.4-0.3-6.8-0.8-10.2-1.4c-1.4-0.8-1.6-2.7-3-2.2
			c-1.4,0.4-2.9,0.3-4.2,0.2c-1.6,0.2-2.1,2.3-4,1.3c-1.8-0.2-1.9-2.1-3.7-0.4c-1.2-0.4-2.6-1.2-3.5-1.5
			C152.4,157.4,154.5,157.5,153.2,156z"/>
		<path class="st1" d="M152.4,185.8c0.7,1.4,0.2,2.7,0.8,4c0.2,1.7-1,2.9-1.1,4.6c-0.1,1.7-1.5,2.6-2.5,1.3c-2.5-0.1,0.7-1.8-2-1.7
			c1.7-1.7-1.6-0.6,0.1-2.2c-1.4-0.7-0.1-1.4-0.6-2.3c0.9-1.1,2.6-1.2,3.6-1.8C152.8,188.7,150.9,185.9,152.4,185.8z M78.7,183.7
			c1.7-0.3,2.7-1.8,2.8-3.5c0.4-1.6,0.8-3.1,1.1-4.7c2.6-1.2-1.1,0,0-1.7c0.1-1.3,0.4-3.8,1-4.3c1.2,0.4,2.4,2.5,2.7,2.7
			c-0.4-1.9-2-2.8-3.3-4.1c0.5-1.5,1.7-2.7-0.1-4c-1.2-1.2-3.2-0.3-4-2.1c-2.2-0.9-0.6-2.2-1.6-3.2c-1.1-0.6-4.1-0.7-2.3-2.4
			c-1.2-1.2-2.6,0.8-3.9-0.7c-1.8-0.6-3.7-1.2-5.4-1.4c-1-1.3-3.2,0.9-3.8-1c-2.7-0.4-0.6-0.8,1-0.8c-1.3-1.6-2-0.3-0.2-1.9
			c-1.3,0.3-4.1,0.1-2.2-1c1.4-0.4,3-0.7,4.5-1.2c1,0.8,2.5,0.1,3.4-0.6c1.5-0.3,3-0.5,3.9,1c1.1,1.9,2.9-0.5,4.2,0.4
			c1.6-0.5,2.3-0.4,3.5,0c2.7,0.1,0-1.3,0.9-2.9c0.1-1.4-2.2-2-2.3-3.7c0.3-1,2.9,0.5,4.1-0.3c-0.1,1,0.5,3,2.3,2
			c1.7,0,3.4,0.5,5.1,0.6c0.8-0.1,4.6-1,2.2-1.3c-1.5-0.8,1.5-1.9,2.3-2.2c2.3-0.7,5-0.6,6.7-2.6c-0.1-1.5-0.6-4,1.4-4.4
			c1.5-1,3.4-0.5,4.9-1.2c0.5,1.4,1.9,3.5,3.4,2.1c1.5-0.7,1.2,2.9,3.2,1.9c0.9,1.1,2.6,0.7,4.1,1.3c0.3,0.6-0.6,3,1.6,2.2
			c1.4,0.8,3.1-2.4,2.8-0.6c-0.3,1.9,1.4,1.4,2.8,2.2c1.2,1.5,2.4,0.8,3.7,1.1c1.8,0.3,3.9-0.3,5.2,1.3c1.3,1.1,2.5,1,4.1,0.9
			c1.3-0.4,2.4,1.2,4,0.6c2.6,0.2,1.4,1.2-0.1,2.2c-1.5,0.7-0.6,2.7-2.1,3.4c0.2,1.2-1,2.6-0.2,3.8c-1.2,1.5-2.4,0.5-3.8,0.6
			c-0.7,1.3,0.2,1.2-1.7,2.6c-1.5,0.7-1.8,1.6-2.7,2.6c-2.2,0.4-0.6,2.5-1.8,3.4c0.8,1.2,2.4-0.9,3.5-1.5c1.9-1.2,2.4,0.6,2.8,2.2
			c0.8,1.8-3.2,1.7-0.1,2.9c0.3,1.4,2.3,1.7-0.1,2.8c-0.9,0.5-3.7,0.2-1.5,1.7c1.8,0.1,2.9,1.5,1,2.4c-0.6,1.5,1.6,2.4,2.8,2.7
			c1.8-0.6,3.1,0.2,2,2c-2.1,1.7-4.6,2.9-6.7,4.7c-2.6,0.4-5.6,1.6-8-0.2c-1.3-1-2.9-1.4-4.5-0.9c-2,0-3.7-1.8-5.7-0.7
			c-2,0.9-4.4,2.3-4.7,4.6c0.8,2.2,0.4,2.4-1.8,2.3c-1.2,0.8-2.6,0.5-4,0c-1.5,1.1-2.4-1.1-4.1-0.1c-1.4,0-0.9-2.5-3-2.1
			c-1.9-0.9-2.8-0.2-3.7,0.5c-1.6,0.2-2.5-0.4-4.2-0.1c-0.9-1.6-2.6,0-3.5-1c-1.2-1-2.9-0.7-4.3-1.4c-2.1,0.9,0.4-2.1-2.2-1.1
			C79.6,184.2,79.2,183.9,78.7,183.7z"/>
		<path class="st1" d="M138,119.5c0.9,1.3-0.7,3-1.3,3.5c-2.1-0.7-1.7,2.1,0.2,1.2c1.8,1.3-1.1,1.7-1.1,3.2c-1.4,1-3.1,0.6-4.5,0.7
			c-2.6,0.4,0.2,1.2,0.3,2.6c-0.5,1.4,0.2,2.2-1.5,2.8c0.9,0.6,0.5,2.5-1.6,1.9c-0.5-1,1.8-2.8-0.7-3.2c-1.5-0.5-2.7,0.1-3.7-1.3
			c-1.3,0-2.2-0.1-3.8,0.1c-0.6,0.8-2.7,0.6-4.1,0.2c-1.5-0.9-2.7-1.6-0.2-2.4c2-1.2,4.1-2.7,4.8-5.1c0.3-1.6,1.9-2.4,3.4-2.1
			c2.5,1.2-0.2,1.7-0.1,2.6c-1.1,1.7,1.4,1.1,2.9,1.7c0.9-0.5,3.7-2.2,1.3-2.3c-1.3-0.9,0.7-1.9-2.1-1.7c-0.2-1.3,0.2-2.8,2-2.9
			c2.1-1.1,4.4-0.4,6.6-1C135.8,118,136.8,119.6,138,119.5z"/>
		<path class="st1" d="M107.7,133c1.9-0.9,4-2.2,6.2-1.5c1.6-0.1,2.8-0.6,4.4-0.1c1.7-0.1,2.1-0.5,3.9-0.8c1,0.3,2.6-0.2,3.3,1.4
			c1.2-0.6,3.6,0.1,3.7,1.3c-1.3,1.6-0.4,2.3,1.5,2.1c1.5,0.5,2.5,2.9,0.7,3.7c-1.1,0-3,0.8-2.6,2.4c1.7,1.2,0.3,1.8-1.2,1.8
			c-1.1,0-2.2-2-3.8-1.8c-1.8,0.4,0-3.8-1.7-1.7c-0.6,0.8-3.2,1.1-3.5,0.2c0.5-1.5-0.2-2.3-2.1-2.2c-1.4-0.4-2.5-0.8-3.8-1.5
			c-0.3-2.5-2-0.5-3.3-1.1C108.5,134.7,108,133.9,107.7,133z"/>
		<path class="st1" d="M129.2,143.3c1-1.3-1.8-2.1,0.1-3.5c1.7-1.6,1.8,0.7,3.2,1.3c2.6,0,0.1,1.3,0.7,2.6
			C132,143.3,130.5,143.6,129.2,143.3z"/>
		<path class="st1" d="M247.6,37.2c-1.8-0.2-3.6,0.9-5.3,0.6c-1.6-0.4-3.1-2.2-4.6-0.9c-2,0.7-2.8,3.6-5.2,3.1
			c-1.8,0.2-2.7,1.3-0.8,2.3c-0.8,1.1-3.2,1.3-3.5,2.1c0.6,0.8,4.1,1.7,1.9,2.4c-2.3,0.6-2.8,3.5-5.2,3.9c-1.8,0.6-3.5,1.8-5.3,2
			c-1.6-1.3-2.7,0.6-3.9,1.4c-1.9,0.2-3.5,1.3-4.8,2.6c-1.4,0.2-3.7-0.6-2.4,1.6c-1,1.7-2.6,1.1-4.2,0.7c0.6,1.6,1.9,2.6,0.8,4.3
			c-0.1,1.5-3.4,0.6-2,2.8c0.1,1.5,0.5,3.1,1.1,4c-1.3,0.8,2.5,0.2,3,1.1c1.8-0.7,2.7,1.7,4.2,2.3c1.7,0.3,2.9,0.7,3.8,2
			c1.7,1.4-1.6,1.2-2.4,2.2c-1.9,0.5-4.1,2-5.9,0.9c-2.1,0-4.1-1.2-6.1-0.9c-1.7-0.6-3.1,1.2-0.4,0.5c1.3,0.3,2.9,0.8,4.2,1.2
			c1.3,0.7,2.5,0.1,3.9,0c1.2-0.6,3-0.2,3.9-0.7c1.7,1.3-2.8,0.1-1.2,1.7c-1.7-0.1-2.4,2.1-3.9,1.6c0.2-2.6-0.9-0.4-1.7,0.5
			c-1.5,0.9-2.5,0.6-3.7,1.2c-1.4,0-4.2-0.3-2.4,1.5c1.7,0.1,2,3,0.6,3.5c-2.6-0.4,0.1,1.3-0.6,2.1c1.6,1.1-1.7,2.2-1.1,3.8
			c-0.1,1.8-1.9,3-2.8,4.5c-0.8,2.4-2.2,0.5-3.7,0.8c-1.5,0.7-3.2,0-4.8,0.1c-0.3,1.5-2.9,0.5-3.2,2.6c0.9,1,0.6,3.1-1.5,2.1
			c-2-0.3-3.9,1.1-5.9,0.4c-2.2,0.2-1.1-1.2-0.2-2.2c-1.4-1.1-2.7-2.3-3.7-3.8c1.9-0.4,1.3-1.1,3-1.7c-0.9-0.8-2-1.5-3.2-2.2
			c-1.6-0.4-1.4-3.4-3.3-3.1c0.8-1.7-1.9-2.4-1.5-3.6c1.3-1.4,0.8-2.9-1.2-2.1c-0.7-1-2.3-0.7-1.9-3c-0.8-1.2-0.7-3.4,1-2
			c0.7,2,2.3-0.2,2.5-1.4c-1-1.9-0.3-2.6,1-3.6c0.4-1.3,3.1-0.7,3.7-2.2c0.1-1.7,1.3-2.8-0.4-4.2c-2.1-1.7-0.2-1.8,1.6-2
			c1.5-1.3,1.3-2.9-0.9-3c-1.6-0.3-3.2-1.4-2-3.1c1.3-1.8-0.9-2.7-1.3-4.1c0.7-1.6,1-3.4,1.3-5.1c2-3,5.7-4.2,9.2-3.7
			c1.3-0.1,3.6,0.1,3.9-1.4c0-1.6-2.2-2.2-2.6-2.8c2-2.4,5.4-4.3,5.1-7.8c-0.5-2.3,1.8-1.8,3.3-1.8c2.7-1.7,5.3-3.6,7.9-5.2
			c1.2-1.2-1.4-3,0.8-3.7c1.9-1.4,3.9-3.8,6.6-3c1.7,0.1,4.1,0.8,4.7-1.3c-0.5-2,0.8-3,2.6-2c2.9,0.7,5.9,1.2,8.8,1.5
			c1.6-1.2,1.4-3.5,2.1-5.2c2.1-0.2,4.4-0.4,6,1.4c3.2,2.2,7.1,3.2,10.9,3.5c1.9,0.1,3.3,1.4,4.8,2.4c-0.4,1.6-0.3,3.3,1.1,4.4
			c0.9,1.3,2.2,3.1,0.8,4.5c-1.3,1.1-0.4,2.9,0.8,3.7C247.4,36.7,247.5,37.1,247.6,37.2z"/>
		<path class="st1" d="M164.2,81c-0.8-1.3-3.1,0.8-3.7-1.4c0.3-1.3-0.9-2.8-1.5-0.5c0.5,1-1.3,2.5-2.4,2.7c-1.5-0.3-3-0.2-4.4,0.7
			c-0.1,1.2-2.4,1.6-3.5,2.3c-1.4,0.8-3.2,1.3-4.2,2.3c-0.9,0.9-2.8,0.3-4,0.7c-1.4-0.2-3.5,1.1-4.4-0.3c-1.3-0.3-3.1,0.5-1.7-0.7
			c-2.3-0.3-4.2-1.8-6.5-1.8c-1.8-1-0.8-2.6-0.7-3.4c1.1,1.1,2,0.1,3.8,1.1c-2.2-1.2,3-1.4-0.2-1.2c-1.7,0.8-2.4-1.3-0.2-1.4
			c3.4-1-2.3,0.1-0.3-1.1c2.3-2.4-1.5,1.4-1.2-0.4c-1.2-1.1-0.3,1.9-2.6,1.1c-0.3-1.2-1.5,0.9-2.1-1.6c1.4-2,2.3,0.1,2.3-0.8
			c1.9,0.6,1.1-0.5,3-0.5c2.5-0.9,1.4-0.7-0.5-0.3c-2.7,0-1.2-0.9,0-1.8c1-1.7-2.3-0.8-3.3-0.7c-2.5-0.5-0.4-1.4,0.9-2.1
			c1.4-1.4-2-0.3-2.7-1.1c-1.4-1.3,2-2.4,2-2.7c-2.1-0.4-2.1-1.7-1.5-3c-0.9-2.1,1.8-1.5,3-1.8c2.8,0.4,0.4-0.9-0.8-1.2
			c-0.5-1.6,2.5-0.8,3.2-1.9c1.1-1,3.6,0.8,4-1.2c0.3-1.7,2.8-0.3,4-0.4c2,0.2,3-1.1,0.3-1.1c-2.3-0.3-1.4-2.2,0.6-1.5
			c2,0.3,4.1-0.7,5.9,0.4c-0.4-1.8,1.8-1.8,2.5-3.2c1.5-1,3.2,0.2,4.4-0.1c0.8-1.5,3.1-1.4,3.7-2.8c0.6-2.3,3.6-2.7,5.4-3.9
			c1.3-1.3,2.8-0.6,4.3-0.4c1.8-0.5-0.2-2,2.3-2.3c1.4-0.3,2-2.6,3.5-2.1c2.1,0.9,2.8-1.9,0.8-2.1c-0.3-0.6,1.9-2.1,2.4-3.2
			c2.2,0.8,2.4-0.5,3.4-1.5c2.3,0.2,2.5-0.9,0.4-1.5c-1.8-0.6,0.9-2.6,2-1.8c2,0,3.4-0.2,1.1-1.6c1-0.5,2.9-0.6,4.3-1.2
			c1.9-0.1,2.9-0.6,1-1.5c1.6-0.6,3-1.8,4.8-1c0.7-0.1,3.8-0.6,2.6-1.5c-1.7-0.7,1.6-1.7,2.2-2.1c1.1,1.1,2.8,1.5,3.9,0
			c-1.1-2-0.5-2.1,1.6-1.9c3.5-0.1-1-1.4,0.5-1.9c1.3-0.7,3-0.7,3.6-2.1c1.2-0.9,2.7-0.2,3.8-0.8c0.8-1.9,1.8-1.9,3.5-1.3
			c1.6-0.5,3.1-0.3,4.6,0.3c2.3,0.8,3.6-1.6,5-3c1.8-1.8,1.8,0.5,0.9,1.8c0,0.8,2.7-1,3.1-2.1c1.1-0.9,3.1-0.2,4.2-1.6
			c1.3-1,2.8,1.2,3.9,0.9c1.1-1.2,2.1-3.1,4-2.3c1.7-0.2,3.1,1.5,4.5,1.5c1.4-1.5,2.9-3.6,5.2-3.4c1.7,0.6,2.4-1.6,4-1.8
			c2.5-0.8,5.1-1,7.7-0.9c-1.5,1.1-3.8,1.5-4.7,3.3c-1.1,2.2,1.4,2.2,2.4,0.7c2.3-1.6,4.7-3.3,7.4-4.1c0.5,1.2-0.9,4.3,1.3,3.1
			c2.2-0.2,3.2-2.5,4.9-3.5c1.6,0,3.5-0.8,4.9,0.2c-1.8,0.7-1.9,1.9-2.7,3.2c0.8,0.6,3.1,0.9,3.4-0.9c1.3-0.9,2.7-2.4,4.4-1.5
			c2.9,1,5.8,2.1,8.9,1.8c1.9,0.2,3,1.9,0.5,2.1c-3.6,1.3-7.5,0.4-11.2,0.6c-1,0,2.1,1.4,3,1.5c1.7-0.1,2.6,1.8,4.3,1.3
			c2.5-0.3,5.1-0.7,7.4,0.5c-2.1,2.1-5.1,1.1-7.6,2c-2.8,1-5,3.2-7.8,4.2c-0.4-2.1,2.2-3,2.8-4.6c-0.5-1.3-2.7-1.4-4-1.8
			c-2.2-0.5-4.3-2-6.7-1.2c-3.2,0.4-6.7-0.3-9.5,1.8c-1.8,0.8-2.1,2.7-2.5,4.4c-0.5,1.5-2.7,1.3-3.9,2.1c-1.3,1.4-2.6,0.8-4.1,0.1
			c-1.5-0.8-3-1-4.7-0.6c-2.8,0.4-5.8,0.6-8.5-0.3c-2.2-1.3-4.1-3.3-6.7-3.6c-1.6,0.2-2.8,1.9-4.2,2.1c-1.2,0-3.7-0.8-4.1,0.7
			c-0.6,1.5-0.4,3.9-2.2,4.4c-3.6-0.4-7.1-1.1-10.6-2c-1.1,1.1,0.1,3.2-1.7,3.9c-2.6,0.4-5.7-1.3-7.8,1c-0.9,1.1-3.2,1.7-3.2,3.1
			c1,1.4,0.2,2.9-1.4,3.4c-2.3,1.3-4.3,3.2-6.6,4.2c-1.4-0.1-3.5-0.3-3,1.8c0.3,3.6-3.3,5.5-5.3,8c1.5,0.3,2.5,1.4,2.9,2.9
			c-2.5,2.3-6.3,0.1-9.2,1.7c-2.1,0.9-4.5,2.7-4.3,5.2c-0.3,1.5-1.8,3.3,0,4.4c1.6,1.1,0,2.9-0.1,4.4c1.2,1.2,2.9,1.2,4.2,2
			c0.9,1.1-1.2,2.9-2.6,2.7c-2.1,0.1,1.1,2.1,1.3,3.2c-0.4,1.1-0.2,3.3-2,3.6c-2,0.1-2,1.5-3.6,2.2c-0.5,1.1,1,3-0.4,4.2
			C165.8,83.8,165.4,81.1,164.2,81z"/>
		<path class="st1" d="M278.6,18.3c0,1.3-1.7,3.1,0,3.9c2.1,0.8,4.4,1,6.3,2.3c1.8,0.7,2.1,1.8,0.2,2.6c-1.4,1-3.1,1.6-4.3,2.9
			c2.3,2.3,4.7,4.5,6.2,7.4c0.1,1.4-1.8,2.3-2.2,3.8c-0.8,2,1.7,3.3,2.7,4.7c0.7,1.2,2.8,2.1,2.3,3.7c-0.9,1-3.8,1.7-1.3,2.7
			c2.4,1.2,5.4,1.4,7.4,3.4c1.4,2.1-1.3,3.9-2.6,5.2c-5.3,3-10.5,6.2-15.8,9.2c-0.7,1.5-2.9,1.1-4.3,1.6c-1.7-0.2-2.9,1.4-4.4,0.3
			c-1.5,0.3-2.4,1.2-4,0.5c-0.4-2.5-0.1,0.5-1.9,0.7c-1.8-0.6-2.6,1.4-3.8,0.5c-1.2-0.6-2.6,0.8-4.1,0.8c-0.9,0.2-2.9-0.1-4,0.9
			c-1.1,0.3-2.9-0.1-4,0.2c-1.5,0.5-3.2,0.7-4.7,0.3c-2.7-0.3,0.2-2.9-2.1-2.3c-1.9,0.2-2.7,0.6-3-0.5c-1.5,0.2-2.9-0.9-4.3-1.1
			c-2-0.8-1.9-3.4-1.1-5.1c0.7-1.7-0.3-3-1.6-4c-0.6-0.9,1.8-3-0.1-3.8c-2.2,0-1-2.2,0.4-2.6c2.3-0.1,0.5-3,2.9-2.4
			c1.4,0.4,3.2,0.7,4-0.8c0.7-1.3,0.9-3.7,2.5-1.8c1.7-0.3,3.1-1.9,4.7-2.7c2.4-1.4,4.7-2.9,7.1-4.3c1.6-0.8,3.3-1.2,5.1-0.9
			c0.7-1.7-2.3-1.5-0.7-3.4c0.6-1.8-2.4-1.5-3.6-1.7c-1.6-0.3-2.9-1.8-4.7-1.4c-0.5-1.2-2.6-2.4-1.5-3.8c1.2-1.2,1.4-2.9,0.2-4.2
			c-0.7-1.4-2.4-2.3-1.9-4.1c0.7-1.7-1.7-2.4-2.8-3.2c-2.6-0.9-5.6-0.7-8.2-1.7c-2.2-0.9-4.3-2.1-6.3-3.5c0.6-0.6,2.4-2,3.8-2.3
			c3,0.2,5,3.1,7.7,4c3.2,0.6,6.6,0.2,9.8-0.3c1.6,0.5,3.4,1.5,4.9,1.7c1.5-1.2,3.4-1.6,5.2-2.3c0.8-1.7,0.6-4.1,2.6-5
			c2.9-2.3,6.7-1.4,10.1-2c2.7-0.7,4.9,1.5,7.5,1.5c1.2,0.4,3.9,1.2,2,2.6C279.8,15.8,278.3,16.7,278.6,18.3z"/>
		<path class="st1" d="M772.6-39.5c-1.6,0-3.2,0-4.9,0.1c-5.4,0.7-10.8,1.6-15.9,3.7c-1.5,1.5,3.1,2.5,0.3,2.8
			c-2.2,1.1-4.6,0.4-7,0.7c-1.9-0.1-2.3,1.1-2.4,2.6c-2.9,1.4-5.9-0.5-8.9,0c-4.9,0.6-9.8,1.9-14.8,1.1c-2,0.3,1.3-2.3-1.9-1.8
			c-3,0.2-6.2-0.5-9.1,0.4c-4.1,1.3-8.2,2-12.5,2.4c-7.1,1-14.2,0.8-21.3,1.8c-4.4,1.4-8.8,2.6-13.2,3.8c-1.5,0.2-3,1.3-2.9,2.9
			c1.6,1.8,4.8,1,5.8,3.5c-1.6,1.7-4.1,2.1-6.3,2.4c-0.9-0.1-4.9,1.2-3.1-0.2c0.5-1.1,4.7-1.2,2.4-1.8c-2.8-0.5-5.8,0.3-8.5,1.1
			c-1.5,0.7-3.3,0.8-4.5-0.5c-8.3,1.2-16.7,0.6-25.1,1.4c-2.1,0.1-2.4,2-0.5,2.7c1.9,0.7,0.3,3,1.5,3.9c1.6,1,3.8,0.6,5.6,1.3
			c1.3,0.8,3.5-0.2,4.1,1.5c1.6,0.8,3.7,0.9,5.4,1.8c2.2,0.7,2.1,1.7,0.4,3c-1.9,1.2,0.6,2.2,1.3,3.4c0.7,1.2,2,2.7-0.4,2.9
			c-1.6,0.7-3.4,1.3-2.5-1.1c-0.4-0.9-2.2-2.8-3.3-1.5c-1.3,0.6-1.8,3.4-3.4,2.2c0.2-1.7,0.5-3.4,1.2-5c1.5-0.5,2.9-1.2,4.3-1.9
			c-0.3-2-2.5,0.1-3.8-0.5c-4.3,0.2-8.7-0.5-12.4-2.7c-4-1.4-8.4-2.4-12.7-1.7c-1.9-0.1-3.1,0.6-2.2,2.6c-1.6,0.5-3.2,0.5-4.8,0.3
			c-1.5-0.3-3-0.8-4.6-0.5c-2-0.4-3.1,1.5-0.8,2.2c2.9,1.1,6.1,0.7,9.2,1c2.2-0.2,3.3,1.8,4.1,3.5c-1.8,0.2-3.7,0.2-5.2-0.9
			c-2.6-0.6-5.4-0.3-8.1-0.8c-2.3-0.5-4.9,0.1-6.9-1.1c-1.6-0.6-2.4-2.3-1.5-3.8c0.9-1.3,2.8-2.3,2.3-4.2c-0.2-1.7-2.7-0.7-3.9-1.3
			c-0.3,0.7,0.5,2.8-0.6,3.9c-2.1,1.8-5.2,2.3-7.9,2.5c-1.1,0-3.7,1.2-3.1,2.3c2.6,1.1,4.7,2.9,6.3,5.1c-0.7,1.7-2.6,2.5-3.3,4.2
			c-1.4,1.8,1.3,3.2,1.1,5c2.8-0.4,5.6,0.9,8.4,0.2c3.1-1,6.3,0.1,9.5,0.5c2.2,0.8,4.8,0.2,6.6,1.8c0.6,1.4,1.9,2.7,2.2,3.8
			c-0.8,1.1-3.6,0.5-3.3,2.5c1.9,0.5,3.9,0,5.7,0.8c2.7,0.6-0.4,1.9-1.7,1.7c-2.5-0.2-5.4,0.3-7.3-1.6c0.6-1.7,1.3-3.3,0.6-5
			c-1-1.1-2.8-1.7-4.2-2.1c-3.9-0.4-8-0.2-11.8,0.8c-1.8,0.9-1,2.6,0.6,3.4c0.9,1.3,0.9,3.1-0.8,3.7c-1,1.2-3,1.1-3.9,2.3
			c-0.7,1.8-2.4,2.6-4.1,3.1c-1.8,1.1-4.3,0.5-5.6,2.3c-1,1.4-2.7,1.3-4.3,1.3c-2.4-0.5-4.8-0.2-7.3-0.4c-3.4-0.4-7.2-0.3-10-2.4
			c-0.9-1.4,2.6-0.9,3.7-1.1c2.8-0.2,5.5,1.4,8.2,1.2c1-0.5,4.2-0.2,3.4-1.6c-1.4-1.5,1.9-1.7,2.9-2.3c2.6-1.6,6.3-2.3,7.5-5.4
			c0-1.4,3.3-2.5,1.2-3.5c-2-0.3-4.3-1.1-4.8-3.3c-0.1-2.2,0.4-4.6-0.5-6.8c-0.7-1.6,2.9-1.6,1.7-3.4c-0.3-2.6-2.9-3.8-5-4.9
			c-2.5-0.5,0.4-2.2,1.5-2.7c2.2-1,3.9-3,4.2-5.4c-0.8-1.9-3.4-1.3-5.1-1.3c-4.4-0.5-8.8,0.6-13.2,0.4c-1.6,0-3.4-0.7-4.9-0.4
			c-2.2,0.8-2.2,3.3-3.4,4.9c-2.5,3.2-6.5,4.3-10.3,5.3c-1.6-0.1-2.8,1-3.4,2.5c0.8,1.9,3.4,0.2,4.6,1.6c0.3,1.1,0.8,3.2-0.7,3.7
			c-1.1,0.3-3.7,1.2-2.6,2.7c1.6,0.6,3.6,0.3,5.4,0.5c1.6,0.2,3.3,0.9,2.6,2.8c1.3,2.3,4.3,2.1,6.6,1.9c-1.4,1.6-2.9,3.2-4.7,4.3
			c-2.5-0.4-4.6-1.9-7-2.7c-4-1.9-8.3-2.8-12.6-3.8c-3.8-0.1-7.4-1.5-11.1-2.1c-3.8-0.5-7.6-1.3-11.4-1.5c-2.6,0.2-5.3-0.7-7.7,0.4
			c-1.5,0.8-3.5,1.3-1,2.5c1.1,0.9,3.5,1.8,1.7,3.3c-1.7,1.9-4.2,0.7-6.2,1.3c0.2,2-2.1,2.2-3.6,1.7c-2.3,0-2.2-1.8-0.2-2.5
			c-3-1.6-6.7-1.1-9.7,0.3c-2.4,1.6-5.4,1.5-8.1,0.7c-3.2-0.3-6.7-0.2-9.7,0.9c-0.6,1.1-2.2,3.1-3.4,1.7c-1.6-0.6-3.6,0.3-5.3,0.4
			c-1,0.4-4.3-0.2-2.6-1.5c2,0.2,2.9-0.5,2.9-2.5c0.7-1.4-2.6-0.8-3.6-0.6c-2.1-0.2-1.8,2-3.3,2.6c-1.3,0.8-3.3,0.9-3.5-1
			c-5.3,1.9-11,2.1-16.3,3.8c-3.6,0.6-7,2.3-10.7,2.6c-1.7,1.1-1.6,4-3.6,4.9c-3.5-0.1-7,1.2-10.4,0.3c-1.8,0-2.8-1.6-4.4-2.2
			c-1.7-0.3-3.9-1.2-1.6-2.6c3.1-1.4,6.8-0.8,10.2-1.2c-1-1.3-2.5-2.1-3.7-3.2c-1.3-1.9-3.7-1.7-5.7-1.5c-2.7,0.5-5.4-0.2-8-0.5
			c-2.3,0.4,0.3,2,1.3,2.6c1,1.4,0.3,2.9-1.1,3.7c-1.5,0.9-2.7,2.4-0.1,2.6c1.8-0.1,2.8,1.5,2.6,3.1c-0.6,1.4-2,2.6-2.3,4.2
			c-2.6-0.1-4.7-1.9-7.3-1.9c-1.9,0-4-1.3-5.7-0.1c-2.5,2-5.7,2.8-8.8,3.4c-1.8,0.8-4.3,0.7-5.6,2.4c0.6,1.9,2.5,2.7,3.9,4
			c1.2,1.6-1.1,2.9-2.5,1.8c-1.7,0.2-3.5,0.5-5.2,0.2c-4.5-1-9.2-1.5-13.4-3.5c-1.7-0.9-2.9,0.7-3.9,1.7c1.7,1.5,3.4,3.2,5.8,3
			c1.5-0.7,3.9,0,3.9,1.8c-0.4,1.9-2.8,1-4.1,1.8c-2.1-0.6-4.3-0.7-6.5-0.8c-1.9,0.1-1.9-2.6-3.9-2.3c-2.1-0.6-5.1,0.4-6.6-1.6
			c0-2.2-2.3-3.1-2.8-5c-1.6-1.8,1.8-0.9,2.3-2.5c0.4-2.2-2.2-3.2-3.9-3.4c-3.2-0.2-5.8-2.3-8.7-3.3c-1.1-0.7-2.9-1.9-3.6-2.3
			c2.7-0.6,5.8-0.2,7.8,1.9c3.6,0.2,7.1,0.8,10.6,1.6c5.1,1.5,10.4,1.8,15.7,2.3c5.6,1,11.4,0.7,16.9-0.8c2.9-1,6.1-2.1,7.9-4.7
			c-0.3-1.4-2.6-1.8-1.8-3.7c-0.6-1.5-2.8-1.4-4.1-2c-4.8-1.9-10.4-1.1-14.8-4c-4.1-2.7-9-3-13.7-3.9c-3.5-1.1-7.1-0.7-10.7-0.9
			c-1.8,0.2-3.9-0.7-5.6,0.1c-2,1.6-0.6-2.3-3.1-1.5c-2.3,0-5.6-0.6-6.2-3.3c-1.6,0.7-3.2,1.1-4.9,1.5c-1.8-0.3-2.9,1.2-4.6,1.6
			c-3.4-0.3-6.6,1-9.3,3c-0.9,1.2-3.4,0.9-3.4,2.6c-1.1,1.2-0.8,3.3,1,3.4c2.7,0.4,5.1,1.6,7.3,3.3c-1.7,1.8-4.3,2.5-6.1,4.2
			c2.3,2.3,4.7,4.5,6.2,7.4c0,1.7-2.5,2.8-2.3,4.9c1,2.3,3.2,3.8,4.8,5.8c1.3,1.6-1.1,2.5-2.2,3.3c2.5,2.2,6.4,1.9,8.6,4.4
			c1.3,2.1-1.3,3.8-2.7,5.1c-5.1,2.8-10.1,6-15.2,8.9c-2.2,1.1,0.6,1.3-1.1,2.9c1.2,1.7,3.4,1.5,5.1,1.4c2.2-0.5,4.5,0.3,5.9,2.1
			c-1.6,1.1-3.4,0-5.1-0.4c-1.5-0.6-2.8,0.1-3.8,1.3c-1.7-0.2-2.8-0.4-3.5,0.6c-1.3-1.4-3.3,0.1-1.1,0.8c1.5,1.4-1.5,0.6-1.6,1.7
			c-0.3,1.6-3,1.2-2.8,2.9c1,1.4,0,2.5,0.6,3.7c0.7,0.6,2.7,2.3,0.8,2.2c-0.9,0.1-2.8,1.9-1.2,1.9c0.4,0.5,2.1,1.1,2.6,1.8
			c-1,1-0.4,1.4-1.4,2.7c1.7-0.7,1.7,0.6,2.4,1.6c1.2,0.3,1.6,1.9,1,2.9c0.9,1.3,2.6-0.6,3.6,0.8c0.8,1,2.6-0.5,3.8,0.3
			c1.9-0.3-0.7,2.1,1.7,1.9c1-0.7,2.5-1.1,3.7-0.8c1.6-0.4,3.1,0.5,4.3,1.4c2.3-0.3-0.7,2.2,1.1,2.7c1.4,1-2.5,2.2-0.3,2.7
			c1.3,0.9,1.5,0.9,1.7,1.9c0.9,1,1.8,2.3,3.4,2.4c2.2-0.1-0.3,2.7,1.7,2.1c0.8-0.2,4.1,0.3,2.9,0.9c0.5,0.9,3.5,1.8,1,2
			c-1.3,1.2-3.1,1.7-4.9,1.5c-1-0.8-3.5-0.9-3.3,0.8c1.7,0.9,1.1,1.7,2,2.7c-0.8,1.3,0.6,2.1,1.1,2.9c0.4,0.1,1,0.3,1.5,0.3
			c2,1,2.2-2.3,3.5-1.7c2,1.3,4.1-0.9,6.2,0c1.7-0.7,2.8,0.4,3.9,1.6c0.2,1.1,3.6,2,1.6,2.4c-2-0.1-0.5,2.3,0.3,3.1
			c1.5-0.2,2.7,0.5,4.2,0.2c1,0.7,2,0.8,2.3,2.4c0.8,1.3,0.2,2.6,1.9,3.4c1.3-1.2,3.3-0.5,4.5,0.4c1.3,0,2.5,0.4,3.9-0.4
			c1.3,0.2,3-1.2,3.9,0.2c0.7,1.3,1.7,1.6,2.9,2.3c1.5,0,2.2-1.3,3.8,0.1c1.3,0.2,2.6,0.8,3.9,0.7c1.3,0.9,2.7,0.5,3.8,1.6
			c1.2,0.4,2.8-0.9,2.3,0.9c1.5,1.4-1.1,2.1-2.1,2.5c-1.7,0.7,3.3,1.2,0.9,1.6c-2-0.5-1.5,1.5-0.4,2c1,1.4,0,2.6-0.3,4
			c-1.3,0.9-2.8-0.3-4.2,0c-1.8-0.4-2.1,0.6-3.5,1.3c-1.7,0-2.8,0.8-2.5,2.7c-0.2,1.5,2.7,0,3.8,0.2c1.1-0.5,3.9-0.1,2.8,1.2
			c-2.7,0.7-5,2.4-7.8,2.5c-2.6-0.2-1,1.5,0.6,1.9c1.6,0.4,3.1,2.6,0.5,2.4c-1.9-0.4-2,1.9-3.1,2.8c0.3,2-1.7,1.8-3.1,1.7
			c-2.8,0.2-0.7,1.5,0.6,2.6c0.6,2,2.2,1.4,3.7,1.3c1,1.3,2.4,2.1,4.1,2.1c3.7,1.3,6.6,4.2,9.9,6.3c0.7-0.2,1.9-1.7,3.5-0.7
			c2.1-0.4,3.6,1.6,5.7,1.2c1.4,0.8,3,1.3,4.7,1c1.5-0.6,3,0,4.4,0.3c1.6-0.7,2.2,1.5,3.7,1.6c0.9,0.3,4,0.6,3,1.6
			c0.4,1.1,2.5,0.7,3.3,0c1-1.5,2.9,0.5,3.7-0.4c1.1-0.3,2.6,0.5,3.6,1.2c1.7-0.3,3.2,0.2,1.8,1.9c1.2,1.3,2.9,1.9,4.6,1.8
			c0.9,1.2,1.9,0.5,2.9,1.6c1,0.9,3.1,1.1,2.8,2.8c1.5-0.1,3.3,1.5,4.5,0.2c1-1.7,3.6-1.6,4.2-3.7c-1.1-0.6-1.9-1.8-3-2.8
			c-0.5-1.5-2.3-1.8-2.7-3c-0.2-1.4-2.8-1.9-1-3.5c-1.5-1.1,0.8-3,0.3-3.8c-0.5,0.6-1,1.6-1.2,1.8c0-0.1,0-0.5,0.2-1.2
			c0.1-1.6-1.6-2.5-2.5-3.5c-1.2-0.2-3.4-1.5-1.6-2.7c1.5-0.7,2.4-1.9,3.2-3.2c1-1.3,1.4-2.4,1.7-3.5c1.3,0.9,2.8,0,4.2-0.2
			c1-1.5,2.9-0.6,3.4-1.4c0-1.3,2.6-0.9,3.1-2.4c-1.5-0.4-3.2-1-4.4-1.8c-0.6-2,2.4-0.2,3.3-0.5c-0.1-1.1-2-2.5-2.8-3.8
			c-0.6-1.7-2.6-1.7-3.7-3c-1.4-0.5-3,0.1-4.4-0.7c-0.2,2.1-2.3-0.8-1.7-1.8c-0.6-1.5-3-1.1-4.3-1.7c0.9-1.3,1.2-3.2,2.8-3.9
			c2.6-1-0.7-1.6-0.4-2.8c0.4-1.5-0.1-3.8,2.1-3.4c1.8,0.1,1.3-3,3-2.8c2.6,0.1,3.3,4.1,6.1,3.5c1.6,0.2,2.5-1.7,1.6-2.9
			c-1.1-1.8,1.1-2.1,2.3-2.7c1.7-0.3,2.1-2.4,3.9-2.6c2.7-0.2,5-1.9,7.3-3.3c1.3,0.1,3.3-0.3,4.3,0.7c2,0.6,3.9-2,6-1
			c0.7,1.8,2.6,1.5,4.2,1.4c1.2,0,4.2-0.3,3.9,1.5c1.8,0.7,3.9,1.2,5.2,2.6c-0.7,2.2,2.6,2.3,1.4,0.2c-1.3-2,2.2-1.2,2.8-0.1
			c1.1,1.2,3,1,4.2,1.7c2.3-0.1,3.3-2.3,5.1-3.3c1.6,0.3,3.2-0.1,4.7,0.5c1,1.1,3.6,1.7,3.8-0.4c1.5-0.1,3.1-0.5,4.6-0.2
			c1.4,0.4,1.7,2.6,3.8,2.5c1.4,0.2,2.9,0.8,4.2,0.9c1.5-0.3,2.4-3,3.7-0.9c1.8,0.6,3.8,0.2,5.6-0.4c1.9,0,2.7-1.4,2.8-3.2
			c-0.4-1.7-2.9-0.8-4.1-1.6c-0.6-1.5-3.3-0.4-3.7-1.6c-0.5-0.5-3.6-1.5-0.7-1.6c1.5-1.1,3.5-1,4.8-2.4c-1.1-1-2.5-2.5-0.4-3.2
			c2.1-1.9,5-0.1,7.4-0.8c0.7-1.4-2.3-1.3-3.3-1.6c-2,0.3-2.9-1-1.7-1.6c-1.3-0.6-0.9-3.2,0.5-3.4c2.2,0.2,4.5,0.5,6.7,0.4
			c1.8-0.5,3.6-1.2,5.4-1.6c3.7-0.2,7.5-0.7,11.2-1c1.8,0.6,2.3-1.3,3.9-1.7c4,0.3,7.8-1.4,11.8-1.4c2-0.3,4.8,0.5,6.1-1.6
			c-0.2-1.7,3.2-0.2,3.6-2c2.2-0.3,4.3,0.2,6.4,0.6c1.4,0.7,2.8,0.8,4.3,0.4c1.4-0.3,3.6-0.1,3.3,1.8c0.4,1.4,3,1.5,1.2,3.3
			c-0.2,1.2-1.1,2,1.4,1.9c1.3-0.3,2.7-0.3,4.1-0.2c1.4-1.6,2.3,0.7,3.6,1.2c0.9-0.7,2.7-1.1,3.8,0.3c1.1,1.1,3.4-1.2,3.6,0.1
			c-0.5,0.8-3.6,1.8-1.7,2.7c1.8,0,3.9-0.8,5.7-0.1c1.5,0.8,2.5-1.4,3.9-1.6c2-0.6,4-0.9,5.8-2.2c1.6-0.6,3.2-1.1,4.8-1.6
			c2.2-1,2.4,1.6,0.3,1.6c-1,1.7,2,1.8,2.9,2.7c4.5,1.4,8.3,4.5,11,8.2c2.2,3.1,5,5.6,7.3,8.6c0.9,1.3,1.8,3.1,3.4,1.4
			c1.3-0.8,1.7-2.8,3.6-2.1c2.1-0.7,1.6,2.3,3,2c1.3,0.4,2.1,1.9,3.9,1.3c3.1,0.4,5.8-1.1,8.8-1.3c1.9-0.5,3.4,0.8,4.8,1.8
			c1.8,0.5,1.6,3.1,3.4,3.1c2.5-0.1,3.7,2.3,5.3,3.8c1.7,0.5,3.6,0.3,5.4,0.6c0.8-0.3,3.5-2.5,3.3-0.8c0.9,0.7,1.6,2.7,3,2.6
			c1.2,0.4,2.8,0.7,4.3,0.1c2.2-1.1,4.3-2.2,6.8-2c4,0.3,6.7-2.9,10-4.5c3.5-1.3,7.1-2.5,10.7-3.3c3.6,0.2,7.2,1.1,10.9,1.1
			c1.6,0,3.2,0.1,4,1.6c1,1.3,2.2,2.4,3.9,2.3c3.8-0.1,7.6,0.3,11.4,0.5c2,1,4.3,1.2,6.2,0.1c1.6-0.8,3.9-1.9,3.8-3.9
			c-1.2-1.1-2.1-2.3-2.7-3.8c0.7-1.9,2.8-3,4.2-4.3c1.3-0.9,2.5-2.5,4.2-1.5c5.1,0.7,10.3,1.3,15.2,3c1.4,0.8,3.5,0.3,4.4,1.6
			c-0.3,2.1,0.9,3.9,2.6,5c2.1,1,4.4,1.7,6.7,2.1c3.4-0.2,6.7-1.6,10.2-1.7c3.1,0.3,6.4-0.3,9.4,0.7c3.1,1.4,5.8,3.6,9.3,4.1
			c2,1,4.1,1.5,6.2,1.8c5.1,1.7,10.5,1,15.7,0.6c3.9-0.8,8.6-0.2,11.8-3c2.5-2,5.6-3.5,8.9-3.3c2.3-0.1,3.6,2,5.7,2.4
			c2.8,1.2,5.8-1.6,8.5-0.2c2.1,0.5,3.9,2.4,6.1,2.3c3.6-0.9,7.1-1.8,10.5-3.3c1.9-1.2-1.2-2.4-0.6-3.7c2.6-2.7,4.4-6.5,8.2-7.8
			c1.8-0.4,2.6-1.5,2.6-3.3c-0.7-2.1-3.3-1.7-5.1-1.5c-1.3-0.3,1.5-1.9,2.2-2.4c2.8-2.4,6.5-2.4,10-2.7c4.9-0.5,10.2-1.9,14.8,0.5
			c2.2,1.4,4.8,1,7.3,0.7c2.7-0.2,4.4,2.1,5.8,4c1.9,3.7,3.4,7.7,5.8,11.2c1.5,2.2,1.9,5.2,3.9,7.1c2.7,1.6,6.2,2,9.3,2.6
			c3,0.8,6.1,1.7,9,2.8c1.3,2.4,1.6,5.4,3.1,7.8c2.8-0.2,5.7-0.2,8.5-0.3c4.1-1.4,8.3-2.6,12.6-3.1c1.3,0,3.4-0.6,3.3,1.4
			c0.9,1.7-0.2,3-1.7,3.7c-2.3,0.8-2.4,3.5-3.1,5.4c-1.9,3.8-3.8,7.9-7.3,10.6c-2.3,0.3-4.5-1.4-6.8-1.6c-1.8,0.6-3.4,1.9-5.1,2.8
			c-0.6,2.1,1.2,3.9,1,6c0.3,1.5-0.5,3.1,0,4.4c-0.6,1.8-2.6,2.5-4.2,3c-2.6,0.2-1,1.7-0.4,3.2c2.4-1.8,4.9-3.6,7.1-5.8
			c1.6-1.2,2.9-0.9,1,0.8c1.4,0.2,3.2-2,3.9-0.2c0.7,2,3.5,0.2,4.2,2.1c1,0.9,2.9-0.7,4.2-0.7c4.4-0.7,8.4-3,11.1-6.5
			c1.5-2.7,5.5-2.7,6.5-5.7c2.7-3,6.1-5.3,9.1-8c2.3-1.6,3.1-4.4,4.9-6.3c1.4-1.4,3.9-2,4.1-4.3c1.6-2.5,4.4-3.9,6.6-5.9
			c0.9-1.7,1.2-3.9,1.8-5.8c-0.1-1.9,1.1-3.8,0.5-5.7c-1.2-2,0.1-4.2,1.1-6c0.8-2.5,3.7-3.8,4.3-6.2c-1.9-0.8-2-1.4-1.1-3.3
			c-1.6-1.5-1.4-1.4,0.4-2.8c-1.7-1.1-3.6-1.8-5.2-3.1c-1.9-3-5.8-3.7-9.2-3.6c-1.3,0.3-3.9-1-3.3,1.3c-0.3,2.2-2.8,3-4.8,2.7
			c-1-0.2-4.3,0.7-3.7-0.8c2-1.1,1.6-1.8-0.6-1.7c-1.3,0.9-2.9,1.7-4.5,1c-0.2-1.7,0.6-3.3,0.9-4.9c-2.8-0.3-5.6,0.7-8.4,0.3
			c-1.6,0.2-2.9-1.7-1.5-2.8c5.1-3.1,11-4.7,15.8-8.2c4.5-3.3,8.9-6.9,14.2-8.8c1.8-0.6,3.5-1.4,4.6-3.1c1.5-2.4,4.5-2.8,7-3.7
			c2.6-2.7,6.1-4.2,9.7-5c4.3,0.1,8.7-0.5,13-0.1c1.4,0.2,3.6-1.1,4.3,0.5c-0.5,1.7,2.9,2.1,3.1,0.8c0.2-1.9,2.7-1.3,3.9-1.1
			c3.6,1,7.4-1,10.9,0.6c1.3,0.8,3.7-0.5,3-2.1c1.5-0.7,3.1-1,4.8-0.9c2-0.4,3.3,1.3,5.1,1.6c2.7-0.4,5.4-0.9,8.1,0.1
			c1,0.6,3.7,2.4,1,2.2c-1.3,0.5-3.8-0.2-4.1,1.5c2.1,1.2,4.5,0.3,6.5-0.5c1.5-1.3,2.9,1.5,4.3,0.1c1.7-1.4,3.8-1,5.7-0.6
			c2.7,0.6,5.2-0.8,7.9-0.9c2.3-0.1-0.7-1.9-1.8-1.3c-1.3,0-3.9,0-3.4-1.8c2.5-3.9,7.3-5.2,11.5-6.3c-0.5-1.4,0.6-2.4,2.3-2.7
			c1.8-0.5,2.6-1,2.5-2.8c2.8-1.5,5.9-1.8,9-1.9c2.7,0,5.4-1,8-0.3c1.1,1,2.4,1.7,3.9,0.6c0.9-0.5,4.1-1.6,3,0.4
			c-0.6,1.2-2.8,2.2-2,3.7c1.2,0.6,4.1-0.1,1.8,1.8c-1.2,2,2.1,0.6,3,0.4c3.6-1.5,7-3.8,10.7-5.2c1.1-0.9,3.7-0.1,3.8-1.4
			c-0.6-1.4,2.3-2.5,1.6-4.1c2.6-0.6,5.2-1.1,7.8-1.3c2.4,0.5,5.2-0.1,7.2,1.6c-2.3,0.4-4.6,0.1-6.9,0.5c-2.1,0-1.9,2.1-2.2,3.4
			c-1,1.2-3.2,2.7-0.5,3c-0.4,1.6-2.7,1.6-3.1,3.2c-1.8,0.9-4.1,1.1-6.1,1.7c-1.6,0.8-4,0.6-4.7,2.6c-4.1,3-8.9,5-13.4,7.3
			c-0.7,2-2.8,2.9-4.5,3.8c-4.4,2.6-9.2,4.1-14.2,5c1.5,1.3-0.3,2.7-1.1,3.8c-1.9,1.6-4.5,2.7-6.3,4.6c-0.7,2.8-1.5,5.9-1.3,8.8
			c0.5,1.9,1.2,3.7,1.6,5.6c-0.2,2.3,1.2,4.4,1.7,6.6c0.1,2,1.7,3.2,2.3,5c0.2,1.7,0.4,3.4,1.1,5c0.4,1.1,0.5,3.9,1.9,3.6
			c2.8-1.6,5.8-3.1,8.2-5.2c1.7-1.3,3-3.3,2.8-5.5c-0.5-1.9,2.2-1.8,3.4-2.5c1.8-0.9,3.7-0.4,5.5-1.3c1.9-1-1.1-2-1.2-3.2
			c0.6-1.9,2.5-2.9,4.1-3.8c2.5-1.8,5.4-0.4,8.2-0.8c1.1-0.3,3.6-1.2,2.8-2.6c-1.3-0.7-2.6-1.4-2.9-3.1c0.8-2.8,3.2-4.4,5.3-6.1
			c1.2-1,3.7-1,1.7,0.6c-0.6,1.5,2.6,1.9,3.3,0.7c1-0.9,0.9-3.8-0.9-3.6c-1.8,0.3-2.1-1.8-2.8-3c0.8-1.6,2.9-1.9,3.9-3.4
			c-1-1.3-2.9-0.8-4.4-0.8c-1.7,0.3-4.8-0.2-4.2-2.5c0.9-1.9,3.1-3,4.9-4.1c1.8-0.8,2.3-1.2,1.8-2.2c0.6-0.9,4.2-1.5,1.8-2.1
			c-1-1.4,1.3-2.5,2.2-3.1c2.3-0.9,1.3,0.7,2.2-0.2c1.2-0.9,2.7-2,3.8-0.4c0.3,1.8,2.5,2,3.5,1c-0.1-2.1,2.6-1.6,3.9-2.6
			c1.2-1.4,2.6-1.1,4.2-1.2c1.1,0.2-1.2,2.7-1,3.8c1.3,0.5,2.8-1.2,4.1-1.6c2.9-2.2,6.6-2,10-2.7c2.7-0.1,5.7-0.7,8.2,0.6
			c1.1,0.9,1.5,2.6,3.2,2.9c1.7,0.2,2.8-0.9,2.9-2.4c1.5-1.4,4.5-0.4,5.7-2.3c1.4-1.1,3.5-1.1,5.2-1.7c1.3-1.4,2.9-3,5-2.7
			c2.4,0.4,3.4-2.6,5.8-2.2c2.1,0.2,3.9-0.7,5.6-1.7c2.8-0.3,5.6-0.9,8.4-1.8c2-0.9,4.6-0.7,6-2.5c0.3-1.2,3.9-1.6,2.8-0.1
			c1.3,0.7,2.8,0.4,4.2,0.6c2.5-0.1,4.9,1.5,7.3,0.6c1.8-0.2,2.4-1.5,2.6-3c-2.5,0.7-1.9,0.1-2.3-1.7c-2,0-2.7-3-4.9-2.4
			c-2.2,0.2,2.7-1.2,0.9-2.4c-1-1.4-1.2-2.9-3.1-1.6c1.3-0.9,0.5-0.9-1.6-0.3c-1.2,0-3.5-0.5-3.5-1.9c0.1-1.6-2.7-1.2-3.6-0.3
			c-1,0.4-3.8-0.4-3.9-0.8c3.1-0.2-1.3-2.8,1.3-2c1.7,1.1,3.9,0.7,5.7-0.1c0.5,0,0.5,0.1,2.3,0.8c0.1,1.8,2.5,0.7,3.7,1.3
			c2.3,0,4.9,0.3,6.9-1.2c1.7-0.1,3.3-0.6,5-1.2c0.2,0,0.2-0.1,0.4-0.1c0.9-0.3,1.5-0.6,1.9-0.8c0.2-1.8,1.2-3.3,2-4.9
			c0.7-1.6,2.3-2.1,3.9-2.1c1.2,0.4,2.9,1.7,2.3,3.2c3.3,0.5,6.6,0.4,9.7-0.5c2.4-0.2,5.4-0.1,6.9,2c-0.8,1.1,0.9,2.5,2.2,2.7
			c1.5,1.1,2.5,0.4,3.8,0.3c1.6,0.7,3.9,0.5,5,2.1c1.4,0.6,3.3,0.8,4.9,0.5c1.1,0.1,4.1,0.7,2.8-1.3c-1.5-1.5-0.7-2.7,1.3-2.4
			c1.3-0.1,3.7,0.4,2.8-1.6c-0.2-2.2-2.8-2-3.9-3.5c1.8,0.1,3.4,0.8,5.1,1.4c2.1,0,4.4-0.2,6.5,0.2c-0.5-0.6-3.7-1.9-2.5-1.9
			c1.4,0.1,3.2,1.8,4.3,0.7c1-1.1,2.1-2.4,3.8-1.8c1.2,0.3,4.3,0.3,1.8-0.7c-3.9-1.1-7.7-2.8-11.3-4.6c-2.4-1.3-5-0.4-7.5-0.5
			c-2.4,0.1-4.6-1.6-6.9-0.9c-1.7-0.4-2.2,1.9-1.5,2.8c1.9,0.5,1.6,2,0.5,2.3c-2.2-0.2-3.8-1.6-5.4-2.9c1.1-1.3-0.2-2.9-1.1-3.9
			c-0.9-1.3-2-2.1-3.6-2.5c-4.8-1.4-9.5-2.7-14.4-3.7c-4.1-1.7-8.6-2.5-13.7-3.4c0,0-0.2-0.1-0.2-0.1c-0.2-0.2-0.4-0.4-0.8-0.5
			c-2.7-1.6-5.8-1.4-8.7-2.3c-4.2-1.4-8.7-0.9-12.8-2.2c-5.9-1.1-12-0.5-17.9-0.4c-1.4-0.2-3.6,1.2-4.3-0.5
			c-4.4-0.7-8.9-0.8-13.4-1.1c-1.7-0.3-3.2-0.2-4,1.6c-2.5,1.5,0.7,0.7,1.7,1.6c0.7,1.1,3.1,2.2,2.4,3.6c-1.8,0.7-4,1-6,1.3
			c-1.9,0-4.7,1-6-0.9c-2-1.8-5.2-1.4-7.4-2.9c-1.6-0.6-3.2-2.7-5.1-1.5c-3.5,1.8-7.4,1.2-11.1,1.1c-2.8-0.3-6.2,0.7-8.4-1.4
			c-2.3-1.1-4.9,0.3-7.3,0.5c-2.9,0.3-5.8-0.5-8.5,0.7c-1.8,0.1-2.8,1.8-4.4,2c-1.8,0.8-2.6-1.5-2.2-2.9c-2.2-0.4-4.3-0.2-6.5-0.5
			c-2.5-0.4-0.5-2-0.4-3.5c-0.6-1.7-2.8-2.5-4.5-2.8c-4.7-2.1-9.9-1.9-15-2.2c-7.8-0.7-15.6,1-23.3,1.6c-3,0-6.5,1-9.1-1.1
			c-1.3-1.6-3.1-2.5-5.1-2.8c-4.7-0.8-9.6-0.8-14.2-2.1c1.6-0.4,3.3-0.9,4.9-1.3c2.7,0,0.9-1.4-0.7-1.5c-5-1.1-10.2-1-15.3-1
			c-2.6,0.6-4.8,2.5-7.4,3.1c-2,0.4-4,0.9-6.1,0.9c-2-0.4,1.6-1.7,2.6-1.7c1,0.1,4.3-1.1,2.5-1.9c-1.9-0.1-3.9,0.4-5.8,0.1
			c1.5-0.6,3.1-1.2,4.6-1.7c0.6-0.4-2.9-0.1-4-0.3c-6-0.4-12-1.1-18-1.6c-2.5-0.1-5.3-1.4-7.6,0.2c-3.4,1.9-7.2,1.4-10.9,1.8
			c-1.8,0.2-3,1.9-0.4,1.4c1.2,0.4,4.3-1.5,3.7,0.5c-1,1.5,0.5,2.9-0.5,4.4c-2.3,0-4.7,0.1-6.7-1.3c-1.2-0.3-3.6,0.2-3.9,1.5
			c0.7,0.8-1.8,1.8-2.8,1.9c-2.3-0.5-4.5-1.9-6.9-2.3c-3.6-1.1-7.4-0.7-11,0.4c-4.2,1.3-8.7,0.4-12.8-0.9c-1.7-0.1-1.7-3-3.6-1.4
			c-3.1,1.9-5.2,5.4-8.7,6.7c-2.3,0.5-4.7-0.4-6.8-1.1c-3.8-1.4-7.2-3.6-10.6-5.8c-3.8-0.9-7.1-3.5-11.1-3c-1-0.3-4.6,0.4-3.6-0.8
			c4.6-1.7,9.4-3,14.2-3.8c2.3-0.1,0.2-2.2-1.2-2.1c-4.2-1.9-8.8-0.7-13.2-0.9c-2.9,0.4-5.5-1.1-8.3-1.6c-2.7-0.8-5.5-0.2-8.2,0.6
			c-2.8-0.3-0.1,2.2-1.5,2.8c-1.4,0.6-2.6,2.4-4.1,2.2c-3.2-1.2-6.6-0.9-9.9-0.6c-5.7,0.7-11.3-0.8-17-1c-2.1,0.2-2.3-1.8-1.3-3.2
			c-4.5,0-8.9-0.5-13.4-0.6c-4.2-0.3-8.2,0.4-12.4,0.4c-2.3-0.4-4.1,1.3-6.1,2.2c-1.8,0-1.6-2-2.2-3.2c-2-1.1-4.4,0.7-6.5,0.5
			c-2.3,0.4-4.4-0.8-6.7-0.8c-1.6-1.1-3.7-2.2-5.6-1.3c-2.7,1.1,0.6,0.9,0.6,2.6c-3.8,1.2-7.9,1.4-11.8,2.1c-4.6,0.8-9.3,0.6-14,1.2
			c-2.4,1.4-5.2,2.3-8,2c1.9-1,3.7-2,5.6-3c4.4-1.5,9.1-2.3,13.7-2.9c7.2-2.2,14.2-4.6,21.4-6.8c3.3-0.4,6.6-0.7,9.6-2.1
			c1-0.6,4.3-1.1,3.8-1.7c-1.2-0.6-4.1-1.1-1.6-2c1.2-0.9,3.7-1.5,1.6-2.9c-1.3-0.4-3,0.2-4.5,0c-1.2-0.8-2.5-1.8-4-2.1
			c-4.7-1.5-9.6-1.7-14.5-1.6c-3.1-0.7-6.4,0-9.6-0.1c-1.9-0.4-3.4,0.7-5,1.6c-2-0.3-4.4,0-6.5-0.1c-2,0.3-3.4-0.3-0.9-1.2
			c1-0.5,3.7-1.1,3.5-2.1c-2.8-0.3-5.7,0.4-8.5-0.1c-3-0.7-6.2,0.7-9.2-0.3c1.6-1,3.5-1.5,5.2-1.9c2.6-0.3,0.2-1.7-1.2-1.7
			C775.9-39.4,774.3-39.5,772.6-39.5z M230.4,105.8c-1.7,0.5-0.5,1.3-1.1,2.7c-2.5,0.5-5.1-0.2-7.6-0.1c-1.4,0.8-1.1,2.6,0.2,2
			c2.6-0.4,1.8,0.1-0.2,0.8c5.1,0.1,10.1,0.5,15.2,0.1c2,0.1,2.7,0.1,2.7-1.9c1.8-1.1-0.5-1.6-1.2-2.3c-1.5,0-2.9,0.3-4.2-0.2
			C232.7,106.9,231.3,106.2,230.4,105.8z M1023,117c-0.8,0.4-1.5,0.9-2.3,1.3c-1.1,1-3.6-0.4-4,1.3c1.6,1.4,0.7,3.7-0.2,5.3
			c-0.7,1.2-0.5,3.1,0.5,4c1.7,1.3,2.7,3.2,2.7,5.4c-0.9,4.2,0.2,8.6-1.5,12.6c-2.1,0.7-0.5,2.6,0.1,3.8c0.7,1.4,0.9,3-0.5,4
			c-1.4,1.3-0.3,2.9,0.4,4.3c-0.7,1.7-2.5,3.2-1.6,5.1c0.1,1.5,1.7,3.5,2.4,1.1c1.2-1.3,1.8-4.2,4-3.8c1.7,0.2,2.8,1.2,3.3,2.8
			c0.9,2.8,1.3,0.3,1.7-1.3c0.4-1.5-1.3-2.9-2.8-3.2c-1.2-1.8-3-3.4-3.2-5.7c-0.2-2.3,0.7-4.7,1.6-6.8c0.3-1.5,1.5-2.5,2.9-2.6
			c3.3-0.3,6,2,8.8,3.3c-1.2-1.9-2.6-3.8-3.8-5.8c-1.8-2.8-2.9-6-4.6-8.9c-2.2-2.5-2.8-6.2-1.2-9.2
			C1027,121.7,1024.9,118.8,1023,117z"/>
		<path class="st1" d="M383.8,223.9c-1.7-0.8-2.3,2.2-3.9,1.2c0.1-1.4-1.4-3-2.7-1.7c-1.4,0.4-3.1-0.7-4.6-0.3
			c-1.1-1.5-3.2,1.2-3.8-0.2c-1-0.6-2.2,1.6-3.7,1.5c-2.5,0.7-5,0.7-7.5,0.1c-3,0.5-5.5,2.7-8.6,2.8c-3.1,1-5.9-1.5-8.9-1.4
			c-2.7,1.5-5.9,1.6-8.9,0.8c-2-0.6-1.1,2.1-0.4,3.1c-0.6,0.3-2.2,1.4-3,2.2c-1.3,0.4-3.1,0-3.6-1.6c-0.1-1.4,2.6-1.5,2.7-2.9
			c-0.7-2.2-2.2-0.6-3.5-0.2c-0.1,0.7-1.7,1.8-2.9,0.9c-1.7-1-3.9-1.9-5.5-0.3c-1.5,0.6-2.1,1.9-2.9,2.8c-1.1-1-2.9,0.7-4.3,0.6
			c-2.8,0.2-5.6-0.6-7.5-2.7c-2.1-1.7-5-2.4-7.6-2.6c-2-0.4-2.4,1.4-2.4,3c0.1,2.5-2.1,0.5-3.4,1.2c-1.8,0.6-4.5,0.8-5.2-1.5
			c-0.7-2.6-1.6-1.1-3.1-1.4c-1.2-1.2-3-1.1-4.2,0.2c-2.3,0.4,0.8-2.4-1-2.2c-1.3-0.3-3.5,0.6-4.2-0.6c1.2-0.5,2.3-2-0.2-2.3
			c-1.7-0.3,0-2.5-0.7-3.5c-1.5-0.1-2.6-1.9-4.1-1.2c-1.8-0.1-0.3-3.8,1-1.7c1.7,0.6,2.5-0.7,1.1-1.6c-2.8-0.9,2.5-0.9,0.9-2.1
			c-2-0.2-0.3-1.2-1.7-2.3c-1.9,0,3.3-2,0.9-2c-1.7,0.1-3.4,0.9-5.1,0.7c0.7-1.1,0-2.9,1.1-3.5c1.1-0.5,1.9-1.8,3.4-2.4
			c1.3,0.4,3-1.4,3.8,0.1c0.8,0.6,4.4,0.7,2.6-0.5c-0.3-0.9,2.6-0.1,1.4,0.5c2.4-0.3,4.8-0.3,7.2,0.1c1.5-1.3-3.7-0.7-0.7-1.9
			c2-0.4,4.2-0.2,6.2-0.8c-1.5-0.3-3.4,0.7-4.3-0.7c-2.3-0.3-0.7-3.1,0.9-2.2c2,0.3,4.2,0.5,6.1,0.1c2.1,0.7,4.6,1.4,6.7,0.4
			c0.4-1.3,1.7-1.7,3.2-2.3c4.5-2.4,9.6-4.1,14.7-3c2.1,0.3,4.3,0.7,6.1-0.7c0.5,1.1,1.5,2.6,3,2.7c1.4,0.5,3.5-1.4,4,0.7
			c0.6,1.5,2.4,2.2,3.8,1.3c2.2,0,3.5,2.5,5.8,1.9c3.1-0.1,6.3,1.4,9.3,0.1c3-1.1,5.9,0.7,8.9,0.2c2.3-0.5,4.6-1.3,6.7-2.4
			c1.2-1.3,3.1-0.3,4.7-0.4c2.1,0.9,4-2.3,5.9-0.5c1.9,1.6,4.3,3,5.7,5c0,1.4-2.2,3-0.7,4.2c1.7,1,4.4-0.3,5.7,1.7
			c1,1.5-2.9,0.2-1.8,2.5c-1.9,0.2-2.2,1.8-1.2,3.3c-0.3,1,0,3.4,1.2,3c1.8,0.9-0.7,2.4-0.9,3.7c1.7,0.7,1.4,1.3,1.9,3
			C382.4,223.2,384.1,222.5,383.8,223.9z M273.5,192.4c1.1,0.8,0.4,2.8,2.3,3.2c1.6,1,3.7,0.9,5.3,1.9c-0.4,1.8-2.1,2.2-3.7,1.5
			c-1.6-0.8-3.1-0.4-4.6,0.1c-1.6-0.3-3.2,0.2-3.6,1.9c-1.9,0.7-3.9,1.3-5.4,2.7c-1.6,1.2-1.9,1.8-1.6-0.3c1.2-0.4,3.4-1.8,0.9-1.9
			c-2.1,0.3-2.3-1.1-1-2.4c0.6-1.4,2.5-2.3,2.9-3.5c-1.6-1-2.1-1.2-0.1-2.5c1.4-1.2,3.2-1.2,4.9-0.8
			C271.1,192.3,272.3,192.3,273.5,192.4z"/>
		<path class="st1" d="M353.1,183.2c0.3-2,2.3-1,3.6-1c2-0.2,3.4,1.7,5.4,1.2c2,1.7,4.7,0.8,7.1,0.8c1.2,1,3-0.3,3.9,1.3
			c1.4,1.2,3.5,0.9,5,1.9c-1.4,1.3,1.6,1.2,2.4,0.9c0.8-1.2,2.7-1.3,3.8-0.3c0.9-1.5,2.5,0.1,3.5,0.4c0.8,0.8,3.8-0.2,2.5,1.6
			c-0.5,1.3,1.8,2.1,2.9,2.3c1.9-0.4,2.5,1.1,0.7,1.9c0.1,1.5,1.8,1.9,2.9,2.4c0.8,2-1.9,2-2.9,1c-1.5,0.3-3-0.3-4-1.3
			c-1.4-0.8-3-0.3-4.1,0.6c-1.8,0.6-3.8,0.5-5.7,0.6c-1.6,0.4-3.4,0.5-4.9,0.7c-1.7-1-3-3.1-5.1-3.1c-1.5,0.8-3.1,1.6-4.9,1
			c-1.4-0.2-4,0.4-2.2-1.5c1-2.1-0.3-4.5-0.9-6.5c-1-2.3-3.6-3.1-5.9-3.3C355.1,184.4,353.9,184,353.1,183.2z"/>
		<path class="st1" d="M324.4,252.7c0.4-1.1-2.4-2.4-0.4-3c1.5-1,1.7-1.6,1.5-2.6c1.6-1,2.2-0.1,2.5-1.8c1.4-0.7,1.8-1.6,0.8-2.7
			c-1.7-0.3,0.1-2-2.2-1.3c-1.9,0.6-2.3-1.9-1.7-3.2c1.2-1.6-1.9-2.4-0.8-3.6c0.4-0.8,0.7-2.8,2.1-2.3c1.8,1,2.2-1.3,3.6-1.7
			c2.3,0.1-0.6-2,0.2-3.3c0.7-1,2.9,0.4,4.2,0.2c2.3,0.4,4.3-0.8,6.3-1.3c2.9,0.3,5.6,2.3,8.5,1.4c3.1-0.1,5.6-2.3,8.5-2.8
			c3.3,0.8,7.1,0.6,10-1.3c1.3-2,2.2,1.6,0.4,1.9c-1.5,1.4-2.9,3-5,3c-1.9,0.3-2.7,2.5-1.6,4c0.1,3.1-1.2,6.2-1.7,9.3
			c-9.3,4.9-18.8,9.4-28,14.6c-2.3-0.1-4.1-1.9-6.2-2.8C325.2,253.1,324.7,252.9,324.4,252.7z"/>
		<path class="st1" d="M320.3,275.5c0-1.6-0.7-2.2,0.3-3.9c0.7-1.6-0.2-3.5,1-5c0.9-1.8,1.6-3.7,1.7-5.6c0.8-2.1,0.3-4.4,0.8-6.6
			c-0.9-2.5,1.4-1.3,2.5-0.5c1.7,0.7,3.2,2.3,5.1,2.2c4.1-2.4,8.3-4.5,12.5-6.6c1.3,2.3,2.4,4.7,3.7,6.9c-1.4,2.2-4.5,2.4-6.9,3.1
			c-2.5,0.7-5.1,1.1-7.5,2c1.8,2.1,3.7,4.2,5.4,6.5c-1.8,1.7-3.5,3.7-6.1,3.9c-1.8,0-2.6,1.5-3.7,2.6c-1.3,0.9-2.3,2.6-4,1.7
			C323.6,276,321.9,275.7,320.3,275.5z"/>
		<path class="st1" d="M325.3,241.1c1,0.2,3.8-0.7,2.4,0.8c1.3,0.1,2.4,1.9,1.2,2.5c-2,0.6-0.4,2.4-2.3,1.9c-2.6,0.4,0.1,1.9-2,2.6
			c-0.8,1-2.4,1-2.5,2.3c-1.1-0.2-3.4,0.4-1.7-1.2c0.3-1.5,1.8-2.6,1.6-4.1c1.8,0,0.5-2.8,2.1-3.4
			C324.6,242.1,325.9,242.1,325.3,241.1z"/>
		<path class="st1" d="M319.4,274.2c-1.9-3.8-3.5-7.7-5.2-11.7c2.8-2.3,3.9-6,4.6-9.5c1.2-0.1,0.7-3,2.5-1.6
			c1.4,0.6,1.4-2.8,2.3-0.2c1.5,0.9-0.1,1.9,0.5,3.3c-0.5,2.3-0.1,4.9-0.9,7.1c0.1,2.6-1.9,4.8-2.4,7.3
			C321,270.6,320.5,272.7,319.4,274.2z"/>
		<path class="st1" d="M370.9,359.5c-0.5-3.7-3.1-6.7-5.6-9.4c-2.5-1.5-3.8-4.2-4.8-6.8c-1.2-2.4-2-5.3-4-7.2
			c-2.3-1.8-5.6-2.4-7.2-5.1c-1.1-1.7-2.8-3.3-2.5-5.5c-0.5-2.8,0.4-5.9-1.3-8.4c-2-3.4-3.6-7.5-7.5-9.1c-1.8-0.1-2.7-1.7-3.8-2.9
			c0.8-1.9,0.1-3.8-1.1-5.3c-2.6-4.3-6.4-7.7-8.8-12.1c-1-1.8-2.4-3.6-4.1-4.8c-2.5,0.3-1.8-1-1-2.6c0.4-1.6,0.8-3.2,1-4.8
			c2.2,0.2,4.6,0.9,6.8,0.8c1.5-1.2,3-2.3,4-3.9c2.3-0.6,4.9-0.9,6.5-3c2.1-1.1,0.9-2.4-0.3-3.7c-1.2-1.4-2.4-2.8-3.6-4.2
			c4.1-1.6,8.7-1.9,12.8-3.5c1.1-1.3,2.1-1.8,3.6-0.7c3.1,1.1,6.1,2.2,9.1,3.7c4,1.8,8.1,3.3,11.9,5.4c0.8,1.4,1.7,2.7,3.5,2.1
			c2.3-0.4,0.8,2.2,1.2,3.5c-0.4,1.9,1.4,2.3,2.8,2.7c2.3,1,4.5,2.5,7.2,2.1c4.9,0.2,9.8,0.1,14.7,1.1c1.6,0,1.3,3.2,3.2,2.7
			c1.3,0.4,3.2-0.4,4.1,0.3c0.6,1.9,2.2,3.2,2.4,5.3c1.2,0.5,3.1,0,2.5,1.7c0.9,1.1,1.9,2.1,3.4,2.2c1.2-0.3,3.6,1.9,1.8,2.4
			c-1.1,1,1.3,2.2-0.1,3.6c-0.5,0.7,0.7,3.6,1.5,3c1.7,0.6,0.9,2.6,2.1,3.7c0.9,1.2,0.2,3.2,2.1,3.7c1.9-0.2,2.3,1.5,3,2.9
			c1.4,3.3,3.4,6.4,4.2,9.9c7.4,0.8,14.9,1.7,22.3,2.7c1.2-1.4,2.6-2,3.3,0.2c1.1,1.5,0.7,3.5,1,5.2c-9.5,5.2-18.9,10.9-28.8,15.2
			c-8.6,2.7-17.2,5.6-25.8,8.6c-1.5,0.6-2.2,2.3-3.4,3.4c-3.7,4.2-7,8.6-10.4,13.1c-2.4-5.1-4.9-10.1-7.4-15.1c-2,0-3.9,0.3-5.8-0.5
			c-2.1-0.9-2.7,1.9-2.3,3.4c0.3,1.7-0.7,3-2.1,3.8C371.2,359.5,370.9,359.4,370.9,359.5z"/>
		<path class="st1" d="M437.5,357.3c-2.7,0.9-5.7,3-5.8,6.1c-1.4,1.7-3.9,2.3-5.9,3.2c-4.2,1.3-8.6,2.2-12.6,4
			c-1.6,1.2-2.4,3.6-4.8,3.6c-1.9-0.3-3.9,0-5.6,1.2c-3.2,2.1-6.9,3.5-10.7,3.1c-2.2-0.6-3.6,1.4-5.1,2.6c-1.2,1-2.8,1.4-4.2,1.3
			c-1.4,1.5-4,1.5-5.7,0.6c-1.7-1-3.9-2.8-2.7-5c0.7-2.2-1.3-3.9-1.6-5.9c-0.7-2.9-2.1-5.7-2.2-8.6c1.2-1.3-0.1-3.2,0.7-4.3
			c1.4-0.8,2.2-2.1,1.9-3.8c-0.4-1.5,0.4-4.2,2.4-3.3c1.8,0.8,3.8,0.4,5.7,0.5c2.5,5,5,10.1,7.4,15.1c4.1-5.3,8.1-10.7,12.7-15.6
			c1.1-1.4,3.4-1.5,5-2.2c7.7-2.6,15.4-5.2,23.1-7.7c0.2,4.5,3.9,7.6,5.8,11.4C435.2,355,436.8,356.1,437.5,357.3z"/>
		<path class="st1" d="M344.3,249.5c5.2-2.7,10.3-5.3,15.5-7.9c0.5-3.1,1.8-6.1,1.7-9.3c-1-1.4-0.4-3.5,1.3-4c2.8,0,4.5-2.5,6.4-4.1
			c-0.4-1.1,2.3-1.9,3.3-1.2c1.5-0.1,3.1,0.5,4.7,0.5c1.1-1.5,3,0,2.8,1.5c1.5,1.2,2.1-1.8,3.7-1.1c1.4,2.3,2.6,5.1,3.9,7.5
			c1,1,3,0.9,4.4,1.1c2.6-0.2-1.6,1.8-0.1,3.1c1.7,1.6,0.2,2.6-1.2,3.6c-2,1.3-2,4.2-2.3,6.3c1.1,1.5,3,2.6,3.9,4.1
			c-0.4,2,0.1,2.9,2.1,2.3c2,0.5,3.3,2.6,5.3,3.3c1.5,1.3,4.2,2.4,3.5,4.8c-0.5,1.4-0.9,3-0.6,4.5c1.7-0.4,3,0.3,2.8,2.2
			c-0.6,1.6,1.7,2.2,2.7,3.2c0.3,1-2.6,0.6-3.5,0.7c-1.5,1.1-3.8,0.1-5.5,0.9c-1,1-1.4,2.7-2.5,3.8c-0.9,1.5-2.2,2.1-4,1.7
			c-3.2-0.2-6.6-0.1-9.8-0.4c-2.2-1-4.4-2.1-6.7-2.7c-0.8-1.4-0.4-3.1-0.2-4.5c-0.3-2-3.2,0.4-3.9-1.3c-1.2-2.6-4.4-2.9-6.7-4.2
			c-4.1-1.7-8.1-3.7-12.3-5.3c-1.8-0.5-3.6-1.2-5.3-2.1C346.8,253.9,345.5,251.7,344.3,249.5z"/>
		<path class="st1" d="M395.6,211.9c-1,1.8-2.7,1-3.1-0.8c0.2-1.4-1.9-1.7-1.5-3c-1.4-0.1-3.3,0.8-4.1-0.8c-0.9-1.3-2.6,0.1-4-0.5
			c-1-1.4-2.5-1.5-4.1-1.5c-1.8,0.4-3.3-1.4-2-2.9c1.4-1.4,0.3-2.7-1-3.6c-1.4-1.2,2.1-0.6,2.8-1.1c1.5-0.4,3.1-0.2,4.7-0.4
			c1.6-0.3,2.6-0.7,3.8,0.4c-1.1,1.5,2.4,0.4,2.5,2.1c-1.3,0.3-1.5,2.3,0.3,2.9c1,0.6,3.2,1.5,1.4,2.4c-2.5-0.5,0.1,1.3,0.9,1.8
			c0.6,1.4,3.6,0.5,3.3,1.7c-1.3,0.8,1.6,1.9-0.3,2.2C395.8,210.8,395.8,211.5,395.6,211.9z"/>
		<circle class="st3" cx="313" cy="156.3" r="5"/>
		<ellipse class="st4" cx="313" cy="156.3" rx="1.9" ry="1.9"/>
	</g>
</g>
</svg>
