<svg width="1733" height="2273" viewBox="0 0 1733 2273" fill="none" xmlns="http://www.w3.org/2000/svg">
<path d="M1650.68 2272.09C1695.8 2272.09 1732.37 2250.82 1732.37 2224.57C1732.37 2198.32 1695.8 2177.04 1650.68 2177.04C1605.57 2177.04 1569 2198.32 1569 2224.57C1569 2250.82 1605.57 2272.09 1650.68 2272.09Z" fill="#F4F3F8"/>
<path d="M1650.63 2253.74C1681.84 2253.74 1707.13 2239.05 1707.13 2220.94C1707.13 2202.83 1681.84 2188.14 1650.63 2188.14C1619.43 2188.14 1594.13 2202.83 1594.13 2220.94C1594.13 2239.05 1619.43 2253.74 1650.63 2253.74Z" fill="white"/>
<path d="M1650.63 2239.61C1668.58 2239.61 1683.13 2231.03 1683.13 2220.44C1683.13 2209.85 1668.58 2201.26 1650.63 2201.26C1632.68 2201.26 1618.13 2209.85 1618.13 2220.44C1618.13 2231.03 1632.68 2239.61 1650.63 2239.61Z" fill="#F4F3F8"/>
<path d="M237.684 1594.95C282.796 1594.95 319.367 1573.67 319.367 1547.43C319.367 1521.18 282.796 1499.9 237.684 1499.9C192.571 1499.9 156 1521.18 156 1547.43C156 1573.67 192.571 1594.95 237.684 1594.95Z" fill="#F4F3F8"/>
<path d="M237.634 1576.6C268.838 1576.6 294.134 1561.91 294.134 1543.8C294.134 1525.69 268.838 1511 237.634 1511C206.429 1511 181.134 1525.69 181.134 1543.8C181.134 1561.91 206.429 1576.6 237.634 1576.6Z" fill="white"/>
<path d="M237.634 1562.47C255.583 1562.47 270.134 1553.89 270.134 1543.3C270.134 1532.71 255.583 1524.12 237.634 1524.12C219.684 1524.12 205.134 1532.71 205.134 1543.3C205.134 1553.89 219.684 1562.47 237.634 1562.47Z" fill="#F4F3F8"/>
<path d="M1650.68 940.013C1695.8 940.013 1732.37 918.735 1732.37 892.488C1732.37 866.24 1695.8 844.963 1650.68 844.963C1605.57 844.963 1569 866.24 1569 892.488C1569 918.735 1605.57 940.013 1650.68 940.013Z" fill="#F4F3F8"/>
<path d="M1650.63 921.658C1681.84 921.658 1707.13 906.974 1707.13 888.861C1707.13 870.747 1681.84 856.063 1650.63 856.063C1619.43 856.063 1594.13 870.747 1594.13 888.861C1594.13 906.974 1619.43 921.658 1650.63 921.658Z" fill="white"/>
<path d="M1650.63 907.53C1668.58 907.53 1683.13 898.946 1683.13 888.356C1683.13 877.767 1668.58 869.182 1650.63 869.182C1632.68 869.182 1618.13 877.767 1618.13 888.356C1618.13 898.946 1632.68 907.53 1650.63 907.53Z" fill="#F4F3F8"/>
<g filter="url(#filter0_d)">
<path d="M237.684 269.936C282.796 269.936 319.367 248.658 319.367 222.411C319.367 196.163 282.796 174.886 237.684 174.886C192.571 174.886 156 196.163 156 222.411C156 248.658 192.571 269.936 237.684 269.936Z" fill="#7873AA"/>
</g>
<path d="M237.634 251.581C268.838 251.581 294.134 236.897 294.134 218.784C294.134 200.67 268.838 185.986 237.634 185.986C206.429 185.986 181.134 200.67 181.134 218.784C181.134 236.897 206.429 251.581 237.634 251.581Z" fill="white"/>
<path d="M237.634 237.453C255.583 237.453 270.134 228.869 270.134 218.279C270.134 207.69 255.583 199.105 237.634 199.105C219.684 199.105 205.134 207.69 205.134 218.279C205.134 228.869 219.684 237.453 237.634 237.453Z" fill="#7873AA"/>
<path d="M1683.92 856.738C1683.92 883.417 1669.37 905 1651.45 905C1633.52 905 1618.98 883.417 1618.98 856.738C1618.98 830.059 1633.52 822.065 1651.45 822.065C1669.37 822.065 1683.92 830.059 1683.92 856.738Z" fill="url(#paint0_linear)"/>
<path d="M1651.45 848.108C1663.6 848.108 1673.45 842.326 1673.45 835.195C1673.45 828.063 1663.6 822.282 1651.45 822.282C1639.3 822.282 1629.45 828.063 1629.45 835.195C1629.45 842.326 1639.3 848.108 1651.45 848.108Z" fill="#343150"/>
<path d="M1635.81 829.476C1644.45 824.404 1658.36 824.404 1667 829.476C1670.54 831.598 1672.63 834.18 1673.27 836.855C1674.18 832.981 1672.09 829.015 1667 825.972C1658.36 820.899 1644.45 820.899 1635.81 825.972C1630.72 828.923 1628.72 832.981 1629.54 836.855C1630.27 834.18 1632.27 831.598 1635.81 829.476Z" fill="#666097"/>
<rect width="5.28821" height="24.4479" rx="2.64411" transform="matrix(-0.950791 0.309834 0.302856 0.953036 1613.02 778.575)" fill="url(#paint1_linear)"/>
<path d="M1628.79 816.547L1628.05 808.571C1628.53 805.153 1628.14 801.459 1627.04 798.174L1626.24 790.123L1619.54 790.792C1619.34 790.824 1619.09 790.782 1618.89 790.814C1617.08 791.108 1615.47 792.622 1614.27 795.195C1611.9 800.673 1612.71 809.056 1616.17 813.921C1617.93 816.391 1619.91 817.446 1621.9 817.249L1628.79 816.547Z" fill="url(#paint2_radial)"/>
<rect width="5.28821" height="24.4479" rx="2.64411" transform="matrix(0.950791 0.309834 -0.302856 0.953036 1692.39 779.587)" fill="url(#paint3_linear)"/>
<path d="M1676.62 817.559L1677.37 809.582C1676.88 806.165 1677.27 802.471 1678.38 799.185L1679.17 791.134L1685.87 791.803C1686.07 791.835 1686.32 791.793 1686.52 791.826C1688.33 792.119 1689.94 793.633 1691.14 796.206C1693.52 801.684 1692.7 810.067 1689.24 814.932C1687.49 817.402 1685.5 818.457 1683.52 818.26L1676.62 817.559Z" fill="url(#paint4_radial)"/>
<path d="M1639.05 796.782C1642.67 790.43 1642.67 783.567 1639.07 781.453C1635.46 779.339 1629.6 782.775 1625.99 789.127C1622.37 795.479 1622.37 802.343 1625.98 804.457C1629.58 806.571 1635.44 803.135 1639.05 796.782Z" fill="#BCBEFF"/>
<path d="M1652.72 837.777C1670.9 837.777 1685.63 822.829 1685.63 804.389C1685.63 785.949 1670.9 771 1652.72 771C1634.55 771 1619.81 785.949 1619.81 804.389C1619.81 822.829 1634.55 837.777 1652.72 837.777Z" fill="url(#paint5_radial)"/>
<path d="M1652.72 837.777C1670.9 837.777 1685.63 822.829 1685.63 804.389C1685.63 785.949 1670.9 771 1652.72 771C1634.55 771 1619.81 785.949 1619.81 804.389C1619.81 822.829 1634.55 837.777 1652.72 837.777Z" fill="url(#paint6_linear)"/>
<path d="M1677.42 806.894C1677.42 798.204 1673.93 789.195 1650.95 789.195C1627.47 789.195 1625.98 798.204 1625.98 806.894C1625.98 815.585 1633.47 824.536 1650.95 824.536C1667.93 824.536 1677.42 815.585 1677.42 806.894Z" fill="#343150"/>
<path d="M1661.23 805.928C1659.65 806.392 1659.33 802.856 1661.34 801.684C1663.35 800.512 1666.54 800.54 1668.47 801.772C1670.43 802.922 1669.93 806.466 1668.35 806.017C1665.08 805.086 1664.09 805.086 1661.23 805.928Z" fill="#F4F3F8"/>
<path d="M1641.49 805.928C1643.06 806.392 1643.38 802.856 1641.37 801.684C1639.37 800.512 1636.17 800.54 1634.25 801.772C1632.29 802.922 1632.78 806.466 1634.36 806.017C1637.63 805.086 1638.63 805.086 1641.49 805.928Z" fill="#F4F3F8"/>
<path d="M1696.4 853.924C1696.4 868.59 1692.37 886.896 1686.61 886.619C1680.95 886.329 1681.45 868.472 1681.8 856.601C1682.04 848.654 1679.18 836.213 1684.95 836.491C1690.59 836.627 1696.4 844.437 1696.4 853.924Z" fill="url(#paint7_linear)"/>
<path d="M1606.6 853.924C1606.6 868.59 1610.63 886.896 1616.39 886.619C1622.05 886.329 1621.55 868.472 1621.2 856.601C1620.96 848.654 1623.82 836.213 1618.05 836.491C1612.41 836.627 1606.6 844.437 1606.6 853.924Z" fill="url(#paint8_linear)"/>
<circle cx="307.5" cy="69.5" r="2.5" fill="#AFABD4"/>
<circle cx="243" cy="5" r="5" fill="#AFABD4"/>
<circle cx="198" cy="46" r="4" fill="#AFABD4"/>
<path d="M234 289.5C233.333 366.333 335.1 520 747.5 520C1263 520 1650.5 596 1650.5 809" stroke="#F4F3F8" stroke-width="4" stroke-dasharray="30 30"/>
<path d="M234 1601C233.333 1677.83 335.1 1831.5 747.5 1831.5C1263 1831.5 1650.5 1907.5 1650.5 2120.5" stroke="#F4F3F8" stroke-width="4" stroke-dasharray="30 30"/>
<path d="M1650.5 993C1651.17 1069.83 1549.4 1223.5 1137 1223.5C621.5 1223.5 236.5 1306 236.5 1455.5" stroke="#F4F3F8" stroke-width="4" stroke-dasharray="30 30"/>
<defs>
<filter id="filter0_d" x="141" y="164.886" width="193.367" height="125.05" filterUnits="userSpaceOnUse" color-interpolation-filters="sRGB">
<feFlood flood-opacity="0" result="BackgroundImageFix"/>
<feColorMatrix in="SourceAlpha" type="matrix" values="0 0 0 0 0 0 0 0 0 0 0 0 0 0 0 0 0 0 127 0"/>
<feOffset dy="5"/>
<feGaussianBlur stdDeviation="7.5"/>
<feColorMatrix type="matrix" values="0 0 0 0 0.203598 0 0 0 0 0.192708 0 0 0 0 0.3125 0 0 0 0.15 0"/>
<feBlend mode="normal" in2="BackgroundImageFix" result="effect1_dropShadow"/>
<feBlend mode="normal" in="SourceGraphic" in2="effect1_dropShadow" result="shape"/>
</filter>
<linearGradient id="paint0_linear" x1="1651.82" y1="905" x2="1651.82" y2="833.697" gradientUnits="userSpaceOnUse">
<stop stop-color="#F4F3F8"/>
<stop offset="1" stop-color="#7873AA"/>
</linearGradient>
<linearGradient id="paint1_linear" x1="2.64411" y1="0" x2="2.64411" y2="24.4479" gradientUnits="userSpaceOnUse">
<stop stop-color="#7873AA"/>
<stop offset="1" stop-color="#343150"/>
</linearGradient>
<radialGradient id="paint2_radial" cx="0" cy="0" r="1" gradientUnits="userSpaceOnUse" gradientTransform="translate(1593.05 778.52) rotate(-36.044) scale(39.2106 39.4464)">
<stop stop-color="#AFABD4"/>
<stop offset="1" stop-color="#7873AA"/>
</radialGradient>
<linearGradient id="paint3_linear" x1="2.64411" y1="0" x2="2.64411" y2="24.4479" gradientUnits="userSpaceOnUse">
<stop stop-color="#7873AA"/>
<stop offset="1" stop-color="#343150"/>
</linearGradient>
<radialGradient id="paint4_radial" cx="0" cy="0" r="1" gradientUnits="userSpaceOnUse" gradientTransform="translate(1712.36 779.532) rotate(-143.956) scale(39.2107 39.4465)">
<stop stop-color="#AFABD4"/>
<stop offset="1" stop-color="#7873AA"/>
</radialGradient>
<radialGradient id="paint5_radial" cx="0" cy="0" r="1" gradientUnits="userSpaceOnUse" gradientTransform="translate(1673.24 799.448) scale(55.6141 56.4264)">
<stop stop-color="#C0BFF6"/>
<stop offset="1" stop-color="#393091"/>
</radialGradient>
<linearGradient id="paint6_linear" x1="1648.13" y1="837.458" x2="1657.55" y2="771.368" gradientUnits="userSpaceOnUse">
<stop stop-color="#F4F3F8"/>
<stop offset="1" stop-color="#7873AA"/>
</linearGradient>
<linearGradient id="paint7_linear" x1="1669.43" y1="866.567" x2="1698.64" y2="849.725" gradientUnits="userSpaceOnUse">
<stop stop-color="#F4F3F8"/>
<stop offset="1" stop-color="#7873AA"/>
</linearGradient>
<linearGradient id="paint8_linear" x1="1633.57" y1="866.567" x2="1604.36" y2="849.725" gradientUnits="userSpaceOnUse">
<stop stop-color="#F4F3F8"/>
<stop offset="1" stop-color="#7873AA"/>
</linearGradient>
</defs>
</svg>
